# MagicaVoxel @ Ephtracy

# group
o 

# material
mtllib Kitchen Door.mtl
usemtl palette

# normals
vn -1 0 0
vn 1 0 0
vn 0 0 1
vn 0 0 -1
vn 0 -1 0
vn 0 1 0

# texcoords
vt 0.966797 0.5
vt 0.974609 0.5
vt 0.978516 0.5

# verts
v -8.5 0.2 5.4
v -8.5 0.2 2.3
v -8.5 2.7 5.1
v -8.5 2.7 5
v -8.5 2.7 4.9
v -8.5 3.3 5.1
v -8.5 3.3 5
v -8.5 3.3 4.9
v -8.5 5.3 5.4
v -8.5 5.3 2.3
v -8.4 2.7 5.1
v -8.4 2.7 5
v -8.4 3.3 5.1
v -8.4 3.3 5
v -8.4 0.3 5.1
v -8.4 0.3 2.6
v -8.4 0.4 5.2
v -8.4 0.4 5.1
v -8.4 0.4 5
v -8.4 0.4 2.7
v -8.4 0.4 2.6
v -8.4 0.4 2.5
v -8.4 0.5 5.3
v -8.4 0.5 5.2
v -8.4 0.5 5.1
v -8.4 0.5 5
v -8.4 0.5 2.7
v -8.4 0.5 2.6
v -8.4 0.5 2.5
v -8.4 0.5 2.4
v -8.4 0.6 5.2
v -8.4 0.6 5.1
v -8.4 0.6 2.6
v -8.4 0.6 2.5
v -8.4 2.7 5
v -8.4 2.7 4.9
v -8.4 3.3 5
v -8.4 3.3 4.9
v -8.4 4.9 5.2
v -8.4 4.9 5.1
v -8.4 4.9 2.6
v -8.4 4.9 2.5
v -8.4 5 5.3
v -8.4 5 5.2
v -8.4 5 5.1
v -8.4 5 5
v -8.4 5 2.7
v -8.4 5 2.6
v -8.4 5 2.5
v -8.4 5 2.4
v -8.4 5.1 5.2
v -8.4 5.1 5.1
v -8.4 5.1 5
v -8.4 5.1 2.7
v -8.4 5.1 2.6
v -8.4 5.1 2.5
v -8.4 5.2 5.1
v -8.4 5.2 2.6
v -8.3 0.2 5.4
v -8.3 0.2 2.3
v -8.3 0.3 5.1
v -8.3 0.3 2.6
v -8.3 0.4 5.2
v -8.3 0.4 5.1
v -8.3 0.4 5
v -8.3 0.4 2.7
v -8.3 0.4 2.6
v -8.3 0.4 2.5
v -8.3 0.5 5.3
v -8.3 0.5 5.2
v -8.3 0.5 5.1
v -8.3 0.5 5
v -8.3 0.5 2.7
v -8.3 0.5 2.6
v -8.3 0.5 2.5
v -8.3 0.5 2.4
v -8.3 0.6 5.2
v -8.3 0.6 5.1
v -8.3 0.6 2.6
v -8.3 0.6 2.5
v -8.3 2.7 5.1
v -8.3 2.7 5
v -8.3 2.7 4.9
v -8.3 2.7 4.8
v -8.3 3.1 4.7
v -8.3 3.1 4.5
v -8.3 3.1 4.3
v -8.3 3.1 4.2
v -8.3 3.1 4.1
v -8.3 3.1 4
v -8.3 3.1 3.9
v -8.3 3.1 3.8
v -8.3 3.1 3.5
v -8.3 3.1 3.4
v -8.3 3.1 3.1
v -8.3 3.1 2.9
v -8.3 3.1 2.8
v -8.3 3.2 4.6
v -8.3 3.2 4.5
v -8.3 3.2 4.4
v -8.3 3.2 4.2
v -8.3 3.2 4.1
v -8.3 3.2 4
v -8.3 3.2 3.9
v -8.3 3.2 3.7
v -8.3 3.2 3.6
v -8.3 3.2 3.3
v -8.3 3.2 3.1
v -8.3 3.2 3
v -8.3 3.2 2.9
v -8.3 3.2 2.8
v -8.3 3.3 5.1
v -8.3 3.3 5
v -8.3 3.3 4.9
v -8.3 3.3 4.8
v -8.3 3.3 4.7
v -8.3 3.3 4.6
v -8.3 3.3 4.4
v -8.3 3.3 4.3
v -8.3 3.3 4.2
v -8.3 3.3 4.1
v -8.3 3.3 3.8
v -8.3 3.3 3.7
v -8.3 3.3 3.1
v -8.3 3.3 3
v -8.3 3.3 2.9
v -8.3 3.3 2.8
v -8.3 3.4 5.1
v -8.3 3.4 4.9
v -8.3 3.4 4.7
v -8.3 3.4 4.6
v -8.3 3.5 4.7
v -8.3 3.5 4.6
v -8.3 3.5 4.4
v -8.3 3.5 4.1
v -8.3 3.5 4
v -8.3 3.5 3.7
v -8.3 3.5 3.6
v -8.3 3.5 3.3
v -8.3 3.5 3.1
v -8.3 3.5 3
v -8.3 3.5 2.9
v -8.3 3.5 2.8
v -8.3 3.6 4.7
v -8.3 3.6 4.6
v -8.3 3.6 4.4
v -8.3 3.6 4.2
v -8.3 3.6 4.1
v -8.3 3.6 3.9
v -8.3 3.6 3.8
v -8.3 3.6 3.6
v -8.3 3.6 3.5
v -8.3 3.6 3.4
v -8.3 3.6 3.3
v -8.3 3.6 3.1
v -8.3 3.6 2.9
v -8.3 3.6 2.8
v -8.3 3.7 5
v -8.3 3.7 4.9
v -8.3 3.7 4.8
v -8.3 3.7 4.7
v -8.3 3.7 4.5
v -8.3 3.7 4.3
v -8.3 3.7 4.1
v -8.3 3.7 3.9
v -8.3 3.8 5
v -8.3 3.8 4.9
v -8.3 3.8 4.8
v -8.3 3.8 4.7
v -8.3 3.8 4.5
v -8.3 3.8 4.3
v -8.3 3.8 4.1
v -8.3 3.8 4
v -8.3 3.8 3.9
v -8.3 3.8 3.2
v -8.3 3.8 3
v -8.3 3.8 2.9
v -8.3 3.9 4.3
v -8.3 3.9 4
v -8.3 3.9 3.9
v -8.3 3.9 3.3
v -8.3 3.9 3.2
v -8.3 3.9 3
v -8.3 3.9 2.9
v -8.3 3.9 2.8
v -8.3 4 4.8
v -8.3 4 4.7
v -8.3 4 4.3
v -8.3 4 4.2
v -8.3 4 4
v -8.3 4 3.9
v -8.3 4 3.3
v -8.3 4 3.2
v -8.3 4 2.9
v -8.3 4 2.8
v -8.3 4.1 5
v -8.3 4.1 4.9
v -8.3 4.1 4.8
v -8.3 4.1 4.7
v -8.3 4.1 4.6
v -8.3 4.1 4.5
v -8.3 4.1 4.2
v -8.3 4.1 4.1
v -8.3 4.1 3.9
v -8.3 4.1 3.2
v -8.3 4.1 3.1
v -8.3 4.1 3
v -8.3 4.1 2.9
v -8.3 4.2 5
v -8.3 4.2 4.9
v -8.3 4.2 4.7
v -8.3 4.2 4.6
v -8.3 4.2 4.5
v -8.3 4.2 4.3
v -8.3 4.2 4.1
v -8.3 4.2 3.9
v -8.3 4.3 5
v -8.3 4.3 4.9
v -8.3 4.3 4.6
v -8.3 4.3 4.4
v -8.3 4.3 4.3
v -8.3 4.3 4.2
v -8.3 4.3 3.9
v -8.3 4.3 3.8
v -8.3 4.3 3.6
v -8.3 4.3 3.5
v -8.3 4.3 3.2
v -8.3 4.3 3.1
v -8.3 4.3 3
v -8.3 4.3 2.9
v -8.3 4.4 4.6
v -8.3 4.4 4.5
v -8.3 4.4 4.4
v -8.3 4.4 4.3
v -8.3 4.4 4.1
v -8.3 4.4 4
v -8.3 4.4 3.8
v -8.3 4.4 3.7
v -8.3 4.4 3.6
v -8.3 4.4 3.5
v -8.3 4.4 3.4
v -8.3 4.5 5
v -8.3 4.5 4.9
v -8.3 4.5 4.8
v -8.3 4.5 4.2
v -8.3 4.5 4.1
v -8.3 4.6 4.9
v -8.3 4.6 4.8
v -8.3 4.6 4.4
v -8.3 4.6 4.3
v -8.3 4.6 3.5
v -8.3 4.6 3.4
v -8.3 4.7 5
v -8.3 4.7 4.9
v -8.3 4.7 4.8
v -8.3 4.7 4.7
v -8.3 4.7 4.5
v -8.3 4.7 4.4
v -8.3 4.7 4.3
v -8.3 4.7 4.1
v -8.3 4.7 4
v -8.3 4.7 3.8
v -8.3 4.7 3.7
v -8.3 4.7 3.5
v -8.3 4.7 3.4
v -8.3 4.8 5
v -8.3 4.8 4.9
v -8.3 4.8 4.8
v -8.3 4.8 4.7
v -8.3 4.8 4.6
v -8.3 4.8 4.5
v -8.3 4.8 4.3
v -8.3 4.8 4.2
v -8.3 4.8 4
v -8.3 4.8 3.9
v -8.3 4.8 3.8
v -8.3 4.8 3.5
v -8.3 4.9 5.2
v -8.3 4.9 5.1
v -8.3 4.9 2.6
v -8.3 4.9 2.5
v -8.3 5 5.3
v -8.3 5 5.2
v -8.3 5 5.1
v -8.3 5 5
v -8.3 5 2.7
v -8.3 5 2.6
v -8.3 5 2.5
v -8.3 5 2.4
v -8.3 5.1 5.2
v -8.3 5.1 5.1
v -8.3 5.1 5
v -8.3 5.1 2.7
v -8.3 5.1 2.6
v -8.3 5.1 2.5
v -8.3 5.2 5.1
v -8.3 5.2 2.6
v -8.3 5.3 5.4
v -8.3 5.3 2.3
v -8.2 2.7 4.9
v -8.2 2.7 4.8
v -8.2 3.3 5.1
v -8.2 3.3 4.9
v -8.2 3.3 4.8
v -8.2 3.4 5.1
v -8.2 3.4 4.9
v -8.5 0.2 5.4
v -8.5 5.3 5.4
v -8.3 0.2 5.4
v -8.3 5.3 5.4
v -8.4 0.6 5.2
v -8.4 4.9 5.2
v -8.3 0.6 5.2
v -8.3 4.9 5.2
v -8.4 0.5 5.1
v -8.4 0.6 5.1
v -8.4 4.9 5.1
v -8.4 5 5.1
v -8.3 0.5 5.1
v -8.3 0.6 5.1
v -8.3 3.3 5.1
v -8.3 3.4 5.1
v -8.3 4.9 5.1
v -8.3 5 5.1
v -8.2 3.3 5.1
v -8.2 3.4 5.1
v -8.5 2.7 5
v -8.5 3.3 5
v -8.4 0.4 5
v -8.4 0.5 5
v -8.4 2.7 5
v -8.4 3.3 5
v -8.4 5 5
v -8.4 5.1 5
v -8.3 0.4 5
v -8.3 0.5 5
v -8.3 5 5
v -8.3 5.1 5
v -8.4 2.7 4.9
v -8.4 3.3 4.9
v -8.3 2.7 4.9
v -8.2 2.7 4.9
v -8.2 3.3 4.9
v -8.4 0.3 2.6
v -8.4 0.4 2.6
v -8.4 5.1 2.6
v -8.4 5.2 2.6
v -8.3 0.3 2.6
v -8.3 0.4 2.6
v -8.3 5.1 2.6
v -8.3 5.2 2.6
v -8.4 0.4 2.5
v -8.4 0.5 2.5
v -8.4 5 2.5
v -8.4 5.1 2.5
v -8.3 0.4 2.5
v -8.3 0.5 2.5
v -8.3 5 2.5
v -8.3 5.1 2.5
v -8.4 0.5 2.4
v -8.4 5 2.4
v -8.3 0.5 2.4
v -8.3 5 2.4
v -8.4 0.5 5.3
v -8.4 5 5.3
v -8.3 0.5 5.3
v -8.3 5 5.3
v -8.4 0.4 5.2
v -8.4 0.5 5.2
v -8.4 5 5.2
v -8.4 5.1 5.2
v -8.3 0.4 5.2
v -8.3 0.5 5.2
v -8.3 5 5.2
v -8.3 5.1 5.2
v -8.5 2.7 5.1
v -8.5 3.3 5.1
v -8.4 0.3 5.1
v -8.4 0.4 5.1
v -8.4 2.7 5.1
v -8.4 3.3 5.1
v -8.4 5.1 5.1
v -8.4 5.2 5.1
v -8.3 0.3 5.1
v -8.3 0.4 5.1
v -8.3 5.1 5.1
v -8.3 5.2 5.1
v -8.4 2.7 5
v -8.4 3.3 5
v -8.3 2.7 5
v -8.3 3.3 5
v -8.3 3.3 4.9
v -8.3 3.4 4.9
v -8.2 3.3 4.9
v -8.2 3.4 4.9
v -8.3 2.7 4.8
v -8.3 3.3 4.8
v -8.2 2.7 4.8
v -8.2 3.3 4.8
v -8.4 0.4 2.7
v -8.4 0.5 2.7
v -8.4 5 2.7
v -8.4 5.1 2.7
v -8.3 0.4 2.7
v -8.3 0.5 2.7
v -8.3 5 2.7
v -8.3 5.1 2.7
v -8.4 0.5 2.6
v -8.4 0.6 2.6
v -8.4 4.9 2.6
v -8.4 5 2.6
v -8.3 0.5 2.6
v -8.3 0.6 2.6
v -8.3 4.9 2.6
v -8.3 5 2.6
v -8.4 0.6 2.5
v -8.4 4.9 2.5
v -8.3 0.6 2.5
v -8.3 4.9 2.5
v -8.5 0.2 2.3
v -8.5 5.3 2.3
v -8.3 0.2 2.3
v -8.3 5.3 2.3
v -8.5 0.2 5.4
v -8.3 0.2 5.4
v -8.5 0.2 2.3
v -8.3 0.2 2.3
v -8.4 0.4 5
v -8.3 0.4 5
v -8.4 0.4 2.7
v -8.3 0.4 2.7
v -8.4 0.5 5.1
v -8.3 0.5 5.1
v -8.4 0.5 5
v -8.3 0.5 5
v -8.4 0.5 2.7
v -8.3 0.5 2.7
v -8.4 0.5 2.6
v -8.3 0.5 2.6
v -8.4 0.6 5.2
v -8.3 0.6 5.2
v -8.4 0.6 5.1
v -8.3 0.6 5.1
v -8.4 0.6 2.6
v -8.3 0.6 2.6
v -8.4 0.6 2.5
v -8.3 0.6 2.5
v -8.3 2.7 4.9
v -8.2 2.7 4.9
v -8.3 2.7 4.8
v -8.2 2.7 4.8
v -8.5 3.3 5.1
v -8.4 3.3 5.1
v -8.3 3.3 5.1
v -8.2 3.3 5.1
v -8.5 3.3 5
v -8.4 3.3 5
v -8.3 3.3 5
v -8.4 3.3 4.9
v -8.2 3.3 4.9
v -8.4 5 5.3
v -8.3 5 5.3
v -8.4 5 5.2
v -8.3 5 5.2
v -8.4 5 2.5
v -8.3 5 2.5
v -8.4 5 2.4
v -8.3 5 2.4
v -8.4 5.1 5.2
v -8.3 5.1 5.2
v -8.4 5.1 5.1
v -8.3 5.1 5.1
v -8.4 5.1 2.6
v -8.3 5.1 2.6
v -8.4 5.1 2.5
v -8.3 5.1 2.5
v -8.4 5.2 5.1
v -8.3 5.2 5.1
v -8.4 5.2 2.6
v -8.3 5.2 2.6
v -8.4 0.3 5.1
v -8.3 0.3 5.1
v -8.4 0.3 2.6
v -8.3 0.3 2.6
v -8.4 0.4 5.2
v -8.3 0.4 5.2
v -8.4 0.4 5.1
v -8.3 0.4 5.1
v -8.4 0.4 2.6
v -8.3 0.4 2.6
v -8.4 0.4 2.5
v -8.3 0.4 2.5
v -8.4 0.5 5.3
v -8.3 0.5 5.3
v -8.4 0.5 5.2
v -8.3 0.5 5.2
v -8.4 0.5 2.5
v -8.3 0.5 2.5
v -8.4 0.5 2.4
v -8.3 0.5 2.4
v -8.5 2.7 5.1
v -8.4 2.7 5.1
v -8.5 2.7 5
v -8.4 2.7 5
v -8.3 2.7 5
v -8.4 2.7 4.9
v -8.3 2.7 4.9
v -8.3 3.3 4.9
v -8.2 3.3 4.9
v -8.3 3.3 4.8
v -8.2 3.3 4.8
v -8.3 3.4 5.1
v -8.2 3.4 5.1
v -8.3 3.4 4.9
v -8.2 3.4 4.9
v -8.4 4.9 5.2
v -8.3 4.9 5.2
v -8.4 4.9 5.1
v -8.3 4.9 5.1
v -8.4 4.9 2.6
v -8.3 4.9 2.6
v -8.4 4.9 2.5
v -8.3 4.9 2.5
v -8.4 5 5.1
v -8.3 5 5.1
v -8.4 5 5
v -8.3 5 5
v -8.4 5 2.7
v -8.3 5 2.7
v -8.4 5 2.6
v -8.3 5 2.6
v -8.4 5.1 5
v -8.3 5.1 5
v -8.4 5.1 2.7
v -8.3 5.1 2.7
v -8.5 5.3 5.4
v -8.3 5.3 5.4
v -8.5 5.3 2.3
v -8.3 5.3 2.3

# faces
f 3/1/1 2/1/1 1/1/1
f 4/1/1 2/1/1 3/1/1
f 5/1/1 2/1/1 4/1/1
f 6/1/1 3/1/1 1/1/1
f 7/3/1 5/3/1 4/3/1
f 8/1/1 2/1/1 5/1/1
f 8/3/1 5/3/1 7/3/1
f 9/1/1 7/1/1 6/1/1
f 9/1/1 6/1/1 1/1/1
f 9/1/1 8/1/1 7/1/1
f 10/1/1 2/1/1 8/1/1
f 10/1/1 8/1/1 9/1/1
f 13/3/1 12/3/1 11/3/1
f 14/3/1 12/3/1 13/3/1
f 15/1/2 16/1/2 18/1/2
f 18/1/2 16/1/2 19/1/2
f 19/1/2 16/1/2 20/1/2
f 20/1/2 16/1/2 21/1/2
f 17/1/2 18/1/2 24/1/2
f 18/1/2 19/1/2 24/1/2
f 24/1/2 19/1/2 25/1/2
f 25/1/2 19/1/2 26/1/2
f 20/1/2 21/1/2 27/1/2
f 21/1/2 22/1/2 27/1/2
f 27/1/2 22/1/2 28/1/2
f 28/1/2 22/1/2 29/1/2
f 24/1/2 25/1/2 31/1/2
f 23/1/2 24/1/2 31/1/2
f 31/1/2 25/1/2 32/1/2
f 29/1/2 30/1/2 33/1/2
f 28/1/2 29/1/2 33/1/2
f 33/1/2 30/1/2 34/1/2
f 35/3/2 36/3/2 37/3/2
f 37/3/2 36/3/2 38/3/2
f 23/1/2 31/1/2 39/1/2
f 34/1/2 30/1/2 42/1/2
f 23/1/2 39/1/2 43/1/2
f 39/1/2 40/1/2 43/1/2
f 43/1/2 40/1/2 44/1/2
f 44/1/2 40/1/2 45/1/2
f 41/1/2 42/1/2 48/1/2
f 42/1/2 30/1/2 49/1/2
f 48/1/2 42/1/2 49/1/2
f 49/1/2 30/1/2 50/1/2
f 45/1/2 46/1/2 51/1/2
f 44/1/2 45/1/2 51/1/2
f 51/1/2 46/1/2 52/1/2
f 52/1/2 46/1/2 53/1/2
f 47/1/2 48/1/2 54/1/2
f 48/1/2 49/1/2 54/1/2
f 54/1/2 49/1/2 55/1/2
f 55/1/2 49/1/2 56/1/2
f 52/1/2 53/1/2 57/1/2
f 54/1/2 55/1/2 57/1/2
f 53/1/2 54/1/2 57/1/2
f 57/1/2 55/1/2 58/1/2
f 59/1/2 60/1/2 61/1/2
f 61/1/2 60/1/2 62/1/2
f 59/1/2 61/1/2 63/1/2
f 63/1/2 61/1/2 64/1/2
f 62/1/2 60/1/2 67/1/2
f 67/1/2 60/1/2 68/1/2
f 59/1/2 63/1/2 69/1/2
f 69/1/2 63/1/2 70/1/2
f 65/1/2 66/1/2 72/1/2
f 72/1/2 66/1/2 73/1/2
f 68/1/2 60/1/2 75/1/2
f 75/1/2 60/1/2 76/1/2
f 73/1/2 74/1/2 78/1/2
f 71/1/2 72/1/2 78/1/2
f 72/1/2 73/1/2 78/1/2
f 78/1/2 74/1/2 79/1/2
f 77/1/2 78/1/2 81/1/2
f 79/1/2 80/1/2 81/1/2
f 78/1/2 79/1/2 81/1/2
f 81/1/2 80/1/2 82/1/2
f 82/1/2 80/1/2 83/1/2
f 83/1/2 80/1/2 84/1/2
f 84/1/2 80/1/2 85/1/2
f 85/1/2 80/1/2 86/1/2
f 86/1/2 80/1/2 87/1/2
f 87/1/2 80/1/2 88/1/2
f 88/1/2 80/1/2 89/1/2
f 89/1/2 80/1/2 90/1/2
f 90/1/2 80/1/2 91/1/2
f 91/1/2 80/1/2 92/1/2
f 92/1/2 80/1/2 93/1/2
f 93/1/2 80/1/2 94/1/2
f 94/1/2 80/1/2 95/1/2
f 95/1/2 80/1/2 96/1/2
f 96/1/2 80/1/2 97/1/2
f 85/3/2 86/3/2 98/3/2
f 86/2/2 87/2/2 99/2/2
f 98/3/2 86/3/2 99/3/2
f 99/2/2 87/2/2 100/2/2
f 87/1/2 88/1/2 101/1/2
f 88/3/2 89/3/2 101/3/2
f 89/2/2 90/2/2 102/2/2
f 101/3/2 89/3/2 102/3/2
f 90/3/2 91/3/2 103/3/2
f 102/2/2 90/2/2 103/2/2
f 91/1/2 92/1/2 104/1/2
f 103/3/2 91/3/2 104/3/2
f 92/2/2 93/2/2 105/2/2
f 105/2/2 93/2/2 106/2/2
f 94/2/2 95/2/2 107/2/2
f 95/1/2 96/1/2 108/1/2
f 107/2/2 95/2/2 108/2/2
f 108/1/2 96/1/2 109/1/2
f 96/2/2 97/2/2 110/2/2
f 109/1/2 96/1/2 110/1/2
f 97/1/2 80/1/2 111/1/2
f 110/2/2 97/2/2 111/2/2
f 77/1/2 81/1/2 112/1/2
f 81/3/2 82/3/2 112/3/2
f 112/3/2 82/3/2 113/3/2
f 84/1/2 85/1/2 115/1/2
f 85/3/2 98/3/2 116/3/2
f 115/1/2 85/1/2 116/1/2
f 99/1/2 100/1/2 117/1/2
f 116/3/2 98/3/2 117/3/2
f 98/1/2 99/1/2 117/1/2
f 100/2/2 87/2/2 118/2/2
f 117/1/2 100/1/2 118/1/2
f 87/1/2 101/1/2 119/1/2
f 118/2/2 87/2/2 119/2/2
f 101/2/2 102/2/2 120/2/2
f 119/1/2 101/1/2 120/1/2
f 102/1/2 103/1/2 121/1/2
f 120/2/2 102/2/2 121/2/2
f 104/1/2 92/1/2 122/1/2
f 92/2/2 105/2/2 122/2/2
f 105/1/2 106/1/2 123/1/2
f 122/2/2 105/2/2 123/2/2
f 108/2/2 109/2/2 124/2/2
f 107/1/2 108/1/2 124/1/2
f 110/1/2 111/1/2 125/1/2
f 124/2/2 109/2/2 125/2/2
f 109/1/2 110/1/2 125/1/2
f 125/1/2 111/1/2 126/1/2
f 111/1/2 80/1/2 127/1/2
f 126/1/2 111/1/2 127/1/2
f 77/1/2 112/1/2 128/1/2
f 114/1/2 115/1/2 129/1/2
f 115/1/2 116/1/2 129/1/2
f 116/2/2 117/2/2 130/2/2
f 129/1/2 116/1/2 130/1/2
f 117/1/2 118/1/2 131/1/2
f 130/2/2 117/2/2 131/2/2
f 118/1/2 119/1/2 131/1/2
f 119/1/2 120/1/2 131/1/2
f 128/1/2 129/1/2 132/1/2
f 129/1/2 130/1/2 132/1/2
f 130/3/2 131/3/2 132/3/2
f 131/1/2 120/1/2 133/1/2
f 132/3/2 131/3/2 133/3/2
f 133/1/2 120/1/2 134/1/2
f 121/1/2 103/1/2 135/1/2
f 120/3/2 121/3/2 135/3/2
f 103/2/2 104/2/2 136/2/2
f 135/1/2 103/1/2 136/1/2
f 122/3/2 123/3/2 137/3/2
f 123/1/2 106/1/2 137/1/2
f 106/2/2 93/2/2 138/2/2
f 137/1/2 106/1/2 138/1/2
f 107/1/2 124/1/2 139/1/2
f 94/2/2 107/2/2 139/2/2
f 124/3/2 125/3/2 140/3/2
f 139/1/2 124/1/2 140/1/2
f 125/1/2 126/1/2 141/1/2
f 140/3/2 125/3/2 141/3/2
f 126/3/2 127/3/2 142/3/2
f 141/1/2 126/1/2 142/1/2
f 127/1/2 80/1/2 143/1/2
f 142/3/2 127/3/2 143/3/2
f 128/1/2 132/1/2 144/1/2
f 132/2/2 133/2/2 144/2/2
f 133/3/2 134/3/2 145/3/2
f 144/2/2 133/2/2 145/2/2
f 134/1/2 120/1/2 146/1/2
f 145/3/2 134/3/2 146/3/2
f 120/3/2 135/3/2 147/3/2
f 146/1/2 120/1/2 147/1/2
f 135/2/2 136/2/2 148/2/2
f 147/3/2 135/3/2 148/3/2
f 104/1/2 122/1/2 149/1/2
f 148/2/2 136/2/2 149/2/2
f 136/2/2 104/2/2 149/2/2
f 122/3/2 137/3/2 150/3/2
f 149/1/2 122/1/2 150/1/2
f 137/3/2 138/3/2 150/3/2
f 138/2/2 93/2/2 151/2/2
f 150/3/2 138/3/2 151/3/2
f 93/1/2 94/1/2 152/1/2
f 151/2/2 93/2/2 152/2/2
f 94/2/2 139/2/2 153/2/2
f 152/1/2 94/1/2 153/1/2
f 139/3/2 140/3/2 154/3/2
f 153/2/2 139/2/2 154/2/2
f 141/1/2 142/1/2 155/1/2
f 154/3/2 140/3/2 155/3/2
f 140/1/2 141/1/2 155/1/2
f 142/2/2 143/2/2 156/2/2
f 155/1/2 142/1/2 156/1/2
f 143/1/2 80/1/2 157/1/2
f 156/2/2 143/2/2 157/2/2
f 152/1/2 153/1/2 158/1/2
f 149/1/2 150/1/2 158/1/2
f 156/1/2 157/1/2 158/1/2
f 153/1/2 154/1/2 158/1/2
f 146/1/2 147/1/2 158/1/2
f 128/1/2 144/1/2 158/1/2
f 148/1/2 149/1/2 158/1/2
f 150/1/2 151/1/2 158/1/2
f 144/1/2 145/1/2 158/1/2
f 154/1/2 155/1/2 158/1/2
f 145/1/2 146/1/2 158/1/2
f 147/1/2 148/1/2 158/1/2
f 151/1/2 152/1/2 158/1/2
f 155/1/2 156/1/2 158/1/2
f 158/1/2 157/1/2 159/1/2
f 159/1/2 157/1/2 160/1/2
f 160/1/2 157/1/2 161/1/2
f 161/1/2 157/1/2 162/1/2
f 162/1/2 157/1/2 163/1/2
f 163/1/2 157/1/2 164/1/2
f 164/1/2 157/1/2 165/1/2
f 128/1/2 158/1/2 166/1/2
f 158/3/2 159/3/2 166/3/2
f 159/2/2 160/2/2 167/2/2
f 166/3/2 159/3/2 167/3/2
f 160/3/2 161/3/2 168/3/2
f 167/2/2 160/2/2 168/2/2
f 161/2/2 162/2/2 169/2/2
f 168/3/2 161/3/2 169/3/2
f 162/1/2 163/1/2 170/1/2
f 169/2/2 162/2/2 170/2/2
f 163/3/2 164/3/2 171/3/2
f 170/1/2 163/1/2 171/1/2
f 164/2/2 165/2/2 172/2/2
f 171/3/2 164/3/2 172/3/2
f 172/2/2 165/2/2 173/2/2
f 165/1/2 157/1/2 174/1/2
f 173/2/2 165/2/2 174/2/2
f 174/1/2 157/1/2 175/1/2
f 175/1/2 157/1/2 176/1/2
f 176/1/2 157/1/2 177/1/2
f 172/1/2 173/1/2 178/1/2
f 170/1/2 171/1/2 178/1/2
f 169/1/2 170/1/2 178/1/2
f 171/1/2 172/1/2 178/1/2
f 173/3/2 174/3/2 179/3/2
f 178/1/2 173/1/2 179/1/2
f 174/1/2 175/1/2 180/1/2
f 179/3/2 174/3/2 180/3/2
f 180/1/2 175/1/2 181/1/2
f 175/3/2 176/3/2 182/3/2
f 181/1/2 175/1/2 182/1/2
f 176/2/2 177/2/2 183/2/2
f 182/3/2 176/3/2 183/3/2
f 177/1/2 157/1/2 184/1/2
f 183/2/2 177/2/2 184/2/2
f 157/1/2 80/1/2 185/1/2
f 184/1/2 157/1/2 185/1/2
f 166/1/2 167/1/2 186/1/2
f 167/1/2 168/1/2 186/1/2
f 168/3/2 169/3/2 186/3/2
f 169/1/2 178/1/2 187/1/2
f 186/3/2 169/3/2 187/3/2
f 178/3/2 179/3/2 188/3/2
f 187/1/2 178/1/2 188/1/2
f 188/3/2 179/3/2 189/3/2
f 179/2/2 180/2/2 190/2/2
f 189/3/2 179/3/2 190/3/2
f 180/1/2 181/1/2 191/1/2
f 190/2/2 180/2/2 191/2/2
f 181/2/2 182/2/2 192/2/2
f 191/1/2 181/1/2 192/1/2
f 183/1/2 184/1/2 193/1/2
f 192/2/2 182/2/2 193/2/2
f 182/1/2 183/1/2 193/1/2
f 184/2/2 185/2/2 194/2/2
f 193/1/2 184/1/2 194/1/2
f 185/1/2 80/1/2 195/1/2
f 194/2/2 185/2/2 195/2/2
f 128/1/2 166/1/2 196/1/2
f 166/1/2 186/1/2 196/1/2
f 196/1/2 186/1/2 197/1/2
f 186/2/2 187/2/2 198/2/2
f 197/1/2 186/1/2 198/1/2
f 187/1/2 188/1/2 199/1/2
f 198/2/2 187/2/2 199/2/2
f 199/1/2 188/1/2 200/1/2
f 200/1/2 188/1/2 201/1/2
f 191/1/2 192/1/2 202/1/2
f 190/1/2 191/1/2 202/1/2
f 193/1/2 194/1/2 202/1/2
f 192/1/2 193/1/2 202/1/2
f 188/2/2 189/2/2 202/2/2
f 189/1/2 190/1/2 202/1/2
f 194/1/2 195/1/2 202/1/2
f 202/1/2 195/1/2 203/1/2
f 203/1/2 195/1/2 204/1/2
f 204/1/2 195/1/2 205/1/2
f 205/1/2 195/1/2 206/1/2
f 206/1/2 195/1/2 207/1/2
f 207/1/2 195/1/2 208/1/2
f 128/1/2 196/1/2 209/1/2
f 196/2/2 197/2/2 209/2/2
f 197/3/2 198/3/2 210/3/2
f 209/2/2 197/2/2 210/2/2
f 198/3/2 199/3/2 210/3/2
f 199/2/2 200/2/2 211/2/2
f 210/3/2 199/3/2 211/3/2
f 200/3/2 201/3/2 212/3/2
f 211/2/2 200/2/2 212/2/2
f 201/1/2 188/1/2 213/1/2
f 212/3/2 201/3/2 213/3/2
f 188/2/2 202/2/2 214/2/2
f 213/1/2 188/1/2 214/1/2
f 202/2/2 203/2/2 214/2/2
f 203/3/2 204/3/2 215/3/2
f 214/2/2 203/2/2 215/2/2
f 204/1/2 205/1/2 216/1/2
f 215/3/2 204/3/2 216/3/2
f 211/1/2 212/1/2 217/1/2
f 128/1/2 209/1/2 217/1/2
f 215/1/2 216/1/2 217/1/2
f 214/1/2 215/1/2 217/1/2
f 213/1/2 214/1/2 217/1/2
f 210/1/2 211/1/2 217/1/2
f 212/1/2 213/1/2 217/1/2
f 209/1/2 210/1/2 217/1/2
f 217/1/2 216/1/2 218/1/2
f 218/1/2 216/1/2 219/1/2
f 219/1/2 216/1/2 220/1/2
f 220/1/2 216/1/2 221/1/2
f 221/1/2 216/1/2 222/1/2
f 216/1/2 205/1/2 223/1/2
f 222/1/2 216/1/2 223/1/2
f 223/1/2 205/1/2 224/1/2
f 224/1/2 205/1/2 225/1/2
f 225/1/2 205/1/2 226/1/2
f 205/3/2 206/3/2 227/3/2
f 226/1/2 205/1/2 227/1/2
f 206/1/2 207/1/2 228/1/2
f 227/3/2 206/3/2 228/3/2
f 207/2/2 208/2/2 229/2/2
f 228/1/2 207/1/2 229/1/2
f 208/1/2 195/1/2 230/1/2
f 229/2/2 208/2/2 230/2/2
f 218/1/2 219/1/2 231/1/2
f 219/2/2 220/2/2 231/2/2
f 231/2/2 220/2/2 232/2/2
f 220/3/2 221/3/2 233/3/2
f 232/2/2 220/2/2 233/2/2
f 221/1/2 222/1/2 234/1/2
f 233/3/2 221/3/2 234/3/2
f 222/2/2 223/2/2 235/2/2
f 235/2/2 223/2/2 236/2/2
f 223/1/2 224/1/2 237/1/2
f 224/2/2 225/2/2 237/2/2
f 237/2/2 225/2/2 238/2/2
f 225/3/2 226/3/2 239/3/2
f 238/2/2 225/2/2 239/2/2
f 227/1/2 228/1/2 240/1/2
f 239/3/2 226/3/2 240/3/2
f 228/1/2 229/1/2 240/1/2
f 226/1/2 227/1/2 240/1/2
f 229/1/2 230/1/2 240/1/2
f 240/1/2 230/1/2 241/1/2
f 128/1/2 217/1/2 242/1/2
f 217/2/2 218/2/2 242/2/2
f 218/1/2 231/1/2 243/1/2
f 242/2/2 218/2/2 243/2/2
f 243/1/2 231/1/2 244/1/2
f 222/2/2 235/2/2 245/2/2
f 234/1/2 222/1/2 245/1/2
f 235/1/2 236/1/2 246/1/2
f 245/2/2 235/2/2 246/2/2
f 243/2/2 244/2/2 247/2/2
f 242/3/2 243/3/2 247/3/2
f 244/1/2 231/1/2 248/1/2
f 247/2/2 244/2/2 248/2/2
f 232/1/2 233/1/2 249/1/2
f 233/2/2 234/2/2 249/2/2
f 234/1/2 245/1/2 250/1/2
f 249/2/2 234/2/2 250/2/2
f 238/1/2 239/1/2 251/1/2
f 240/3/2 241/3/2 251/3/2
f 239/1/2 240/1/2 251/1/2
f 241/1/2 230/1/2 252/1/2
f 251/3/2 241/3/2 252/3/2
f 242/3/2 247/3/2 253/3/2
f 128/1/2 242/1/2 253/1/2
f 247/1/2 248/1/2 254/1/2
f 253/3/2 247/3/2 254/3/2
f 248/1/2 231/1/2 255/1/2
f 254/1/2 248/1/2 255/1/2
f 255/1/2 231/1/2 256/1/2
f 231/3/2 232/3/2 257/3/2
f 232/1/2 249/1/2 257/1/2
f 249/3/2 250/3/2 258/3/2
f 257/1/2 249/1/2 258/1/2
f 250/1/2 245/1/2 259/1/2
f 258/3/2 250/3/2 259/3/2
f 246/1/2 236/1/2 260/1/2
f 245/3/2 246/3/2 260/3/2
f 236/2/2 223/2/2 261/2/2
f 260/1/2 236/1/2 261/1/2
f 237/3/2 238/3/2 262/3/2
f 223/1/2 237/1/2 262/1/2
f 238/1/2 251/1/2 263/1/2
f 262/3/2 238/3/2 263/3/2
f 251/2/2 252/2/2 264/2/2
f 263/1/2 251/1/2 264/1/2
f 252/1/2 230/1/2 265/1/2
f 264/2/2 252/2/2 265/2/2
f 253/2/2 254/2/2 266/2/2
f 128/1/2 253/1/2 266/1/2
f 254/3/2 255/3/2 267/3/2
f 266/2/2 254/2/2 267/2/2
f 255/2/2 256/2/2 268/2/2
f 267/3/2 255/3/2 268/3/2
f 256/1/2 231/1/2 269/1/2
f 268/2/2 256/2/2 269/2/2
f 231/3/2 257/3/2 270/3/2
f 269/1/2 231/1/2 270/1/2
f 257/2/2 258/2/2 271/2/2
f 270/3/2 257/3/2 271/3/2
f 258/2/2 259/2/2 271/2/2
f 259/1/2 245/1/2 272/1/2
f 271/2/2 259/2/2 272/2/2
f 260/3/2 261/3/2 273/3/2
f 272/1/2 245/1/2 273/1/2
f 245/3/2 260/3/2 273/3/2
f 261/2/2 223/2/2 274/2/2
f 273/3/2 261/3/2 274/3/2
f 223/1/2 262/1/2 275/1/2
f 274/2/2 223/2/2 275/2/2
f 263/2/2 264/2/2 276/2/2
f 275/1/2 262/1/2 276/1/2
f 262/2/2 263/2/2 276/2/2
f 264/1/2 265/1/2 277/1/2
f 276/2/2 264/2/2 277/2/2
f 77/1/2 128/1/2 278/1/2
f 272/1/2 273/1/2 278/1/2
f 276/1/2 277/1/2 278/1/2
f 266/1/2 267/1/2 278/1/2
f 128/1/2 266/1/2 278/1/2
f 270/1/2 271/1/2 278/1/2
f 267/1/2 268/1/2 278/1/2
f 275/1/2 276/1/2 278/1/2
f 269/1/2 270/1/2 278/1/2
f 268/1/2 269/1/2 278/1/2
f 273/1/2 274/1/2 278/1/2
f 274/1/2 275/1/2 278/1/2
f 271/1/2 272/1/2 278/1/2
f 278/1/2 277/1/2 279/1/2
f 265/1/2 230/1/2 280/1/2
f 279/1/2 277/1/2 280/1/2
f 277/1/2 265/1/2 280/1/2
f 230/1/2 195/1/2 280/1/2
f 195/1/2 80/1/2 280/1/2
f 280/1/2 80/1/2 281/1/2
f 59/1/2 69/1/2 282/1/2
f 279/1/2 280/1/2 284/1/2
f 284/1/2 280/1/2 285/1/2
f 285/1/2 280/1/2 286/1/2
f 286/1/2 280/1/2 287/1/2
f 76/1/2 60/1/2 289/1/2
f 282/1/2 283/1/2 290/1/2
f 285/1/2 286/1/2 292/1/2
f 292/1/2 286/1/2 293/1/2
f 288/1/2 289/1/2 295/1/2
f 290/1/2 291/1/2 296/1/2
f 294/1/2 295/1/2 297/1/2
f 290/1/2 296/1/2 298/1/2
f 296/1/2 297/1/2 298/1/2
f 59/1/2 282/1/2 298/1/2
f 282/1/2 290/1/2 298/1/2
f 297/1/2 295/1/2 299/1/2
f 298/1/2 297/1/2 299/1/2
f 295/1/2 289/1/2 299/1/2
f 289/1/2 60/1/2 299/1/2
f 300/3/2 301/3/2 303/3/2
f 303/3/2 301/3/2 304/3/2
f 302/3/2 303/3/2 305/3/2
f 305/3/2 303/3/2 306/3/2
f 309/1/3 308/1/3 307/1/3
f 310/1/3 308/1/3 309/1/3
f 313/1/3 312/1/3 311/1/3
f 314/1/3 312/1/3 313/1/3
f 319/1/3 316/1/3 315/1/3
f 320/1/3 316/1/3 319/1/3
f 323/1/3 318/1/3 317/1/3
f 324/1/3 318/1/3 323/1/3
f 325/3/3 322/3/3 321/3/3
f 326/3/3 322/3/3 325/3/3
f 331/3/3 328/3/3 327/3/3
f 332/3/3 328/3/3 331/3/3
f 335/1/3 330/1/3 329/1/3
f 336/1/3 330/1/3 335/1/3
f 337/1/3 334/1/3 333/1/3
f 338/1/3 334/1/3 337/1/3
f 341/3/3 340/3/3 339/3/3
f 342/3/3 340/3/3 341/3/3
f 343/3/3 340/3/3 342/3/3
f 348/1/3 345/1/3 344/1/3
f 349/1/3 345/1/3 348/1/3
f 350/1/3 347/1/3 346/1/3
f 351/1/3 347/1/3 350/1/3
f 356/1/3 353/1/3 352/1/3
f 357/1/3 353/1/3 356/1/3
f 358/1/3 355/1/3 354/1/3
f 359/1/3 355/1/3 358/1/3
f 362/1/3 361/1/3 360/1/3
f 363/1/3 361/1/3 362/1/3
f 364/1/4 365/1/4 366/1/4
f 366/1/4 365/1/4 367/1/4
f 368/1/4 369/1/4 372/1/4
f 372/1/4 369/1/4 373/1/4
f 370/1/4 371/1/4 374/1/4
f 374/1/4 371/1/4 375/1/4
f 376/1/4 377/1/4 380/1/4
f 380/1/4 377/1/4 381/1/4
f 378/1/4 379/1/4 384/1/4
f 384/1/4 379/1/4 385/1/4
f 382/1/4 383/1/4 386/1/4
f 386/1/4 383/1/4 387/1/4
f 388/3/4 389/3/4 390/3/4
f 390/3/4 389/3/4 391/3/4
f 392/3/4 393/3/4 394/3/4
f 394/3/4 393/3/4 395/3/4
f 396/3/4 397/3/4 398/3/4
f 398/3/4 397/3/4 399/3/4
f 400/1/4 401/1/4 404/1/4
f 404/1/4 401/1/4 405/1/4
f 402/1/4 403/1/4 406/1/4
f 406/1/4 403/1/4 407/1/4
f 408/1/4 409/1/4 412/1/4
f 412/1/4 409/1/4 413/1/4
f 410/1/4 411/1/4 414/1/4
f 414/1/4 411/1/4 415/1/4
f 416/1/4 417/1/4 418/1/4
f 418/1/4 417/1/4 419/1/4
f 420/1/4 421/1/4 422/1/4
f 422/1/4 421/1/4 423/1/4
f 426/1/5 425/1/5 424/1/5
f 427/1/5 425/1/5 426/1/5
f 430/1/5 429/1/5 428/1/5
f 431/1/5 429/1/5 430/1/5
f 434/1/5 433/1/5 432/1/5
f 435/1/5 433/1/5 434/1/5
f 438/1/5 437/1/5 436/1/5
f 439/1/5 437/1/5 438/1/5
f 442/1/5 441/1/5 440/1/5
f 443/1/5 441/1/5 442/1/5
f 446/1/5 445/1/5 444/1/5
f 447/1/5 445/1/5 446/1/5
f 450/3/5 449/3/5 448/3/5
f 451/3/5 449/3/5 450/3/5
f 456/1/5 453/1/5 452/1/5
f 457/1/5 453/1/5 456/1/5
f 458/3/5 455/3/5 454/3/5
f 459/3/5 458/3/5 457/3/5
f 460/3/5 455/3/5 458/3/5
f 460/3/5 458/3/5 459/3/5
f 463/1/5 462/1/5 461/1/5
f 464/1/5 462/1/5 463/1/5
f 467/1/5 466/1/5 465/1/5
f 468/1/5 466/1/5 467/1/5
f 471/1/5 470/1/5 469/1/5
f 472/1/5 470/1/5 471/1/5
f 475/1/5 474/1/5 473/1/5
f 476/1/5 474/1/5 475/1/5
f 479/1/5 478/1/5 477/1/5
f 480/1/5 478/1/5 479/1/5
f 481/1/6 482/1/6 483/1/6
f 483/1/6 482/1/6 484/1/6
f 485/1/6 486/1/6 487/1/6
f 487/1/6 486/1/6 488/1/6
f 489/1/6 490/1/6 491/1/6
f 491/1/6 490/1/6 492/1/6
f 493/1/6 494/1/6 495/1/6
f 495/1/6 494/1/6 496/1/6
f 497/1/6 498/1/6 499/1/6
f 499/1/6 498/1/6 500/1/6
f 501/1/6 502/1/6 503/1/6
f 503/1/6 502/1/6 504/1/6
f 504/1/6 505/1/6 506/1/6
f 506/1/6 505/1/6 507/1/6
f 508/3/6 509/3/6 510/3/6
f 510/3/6 509/3/6 511/3/6
f 512/3/6 513/3/6 514/3/6
f 514/3/6 513/3/6 515/3/6
f 516/1/6 517/1/6 518/1/6
f 518/1/6 517/1/6 519/1/6
f 520/1/6 521/1/6 522/1/6
f 522/1/6 521/1/6 523/1/6
f 524/1/6 525/1/6 526/1/6
f 526/1/6 525/1/6 527/1/6
f 528/1/6 529/1/6 530/1/6
f 530/1/6 529/1/6 531/1/6
f 532/1/6 533/1/6 534/1/6
f 534/1/6 533/1/6 535/1/6
f 536/1/6 537/1/6 538/1/6
f 538/1/6 537/1/6 539/1/6
