# MagicaVoxel @ Ephtracy

# group
o 

# material
mtllib LampBody.mtl
usemtl palette

# normals
vn -1 0 0
vn 1 0 0
vn 0 0 1
vn 0 0 -1
vn 0 -1 0
vn 0 1 0

# texcoords
vt 0.966797 0.5
vt 0.970703 0.5

# verts
v 2.8 7.6 2.2
v 2.8 7.6 2
v 2.8 7.6 1.9
v 2.8 7.6 1.8
v 2.8 7.6 1.6
v 2.8 7.6 1.4
v 2.8 7.6 1.2
v 2.8 7.6 0.8
v 2.8 7.7 2.2
v 2.8 7.7 2
v 2.8 7.7 1.9
v 2.8 7.7 1.8
v 2.8 7.7 1.6
v 2.8 7.7 1.4
v 2.8 7.7 1.2
v 2.8 7.7 0.8
v 2.8 7.9 2.2
v 2.8 7.9 0.8
v 6.6 7.6 2
v 6.6 7.6 1
v 6.6 7.8 2
v 6.6 7.8 1
v 3 7.6 2
v 3 7.6 1
v 3 7.8 2
v 3 7.8 1
v 6.8 7.6 2.2
v 6.8 7.6 1.7
v 6.8 7.6 1.6
v 6.8 7.6 1.5
v 6.8 7.6 1.3
v 6.8 7.6 0.8
v 6.8 7.7 2.2
v 6.8 7.7 1.7
v 6.8 7.7 1.6
v 6.8 7.7 1.5
v 6.8 7.7 1.3
v 6.8 7.7 0.8
v 6.8 7.9 2.2
v 6.8 7.9 0.8
v 2.8 7.6 2.2
v 2.8 7.7 2.2
v 2.8 7.9 2.2
v 3.5 7.6 2.2
v 3.5 7.7 2.2
v 3.6 7.6 2.2
v 3.6 7.7 2.2
v 3.8 7.6 2.2
v 3.8 7.7 2.2
v 4 7.6 2.2
v 4 7.7 2.2
v 4.3 7.6 2.2
v 4.3 7.7 2.2
v 4.9 7.6 2.2
v 4.9 7.7 2.2
v 5.2 7.6 2.2
v 5.2 7.7 2.2
v 5.5 7.6 2.2
v 5.5 7.7 2.2
v 5.8 7.6 2.2
v 5.8 7.7 2.2
v 6.1 7.6 2.2
v 6.1 7.7 2.2
v 6.8 7.6 2.2
v 6.8 7.7 2.2
v 6.8 7.9 2.2
v 3 7.6 1
v 3 7.8 1
v 6.6 7.6 1
v 6.6 7.8 1
v 3 7.6 2
v 3 7.8 2
v 6.6 7.6 2
v 6.6 7.8 2
v 2.8 7.6 0.8
v 2.8 7.7 0.8
v 2.8 7.9 0.8
v 3.2 7.6 0.8
v 3.2 7.7 0.8
v 4.1 7.6 0.8
v 4.1 7.7 0.8
v 4.6 7.6 0.8
v 4.6 7.7 0.8
v 5 7.6 0.8
v 5 7.7 0.8
v 5.5 7.6 0.8
v 5.5 7.7 0.8
v 5.8 7.6 0.8
v 5.8 7.7 0.8
v 6 7.6 0.8
v 6 7.7 0.8
v 6.1 7.6 0.8
v 6.1 7.7 0.8
v 6.5 7.6 0.8
v 6.5 7.7 0.8
v 6.6 7.6 0.8
v 6.6 7.7 0.8
v 6.8 7.6 0.8
v 6.8 7.7 0.8
v 6.8 7.9 0.8
v 2.8 7.6 2.2
v 3.5 7.6 2.2
v 3.6 7.6 2.2
v 3.8 7.6 2.2
v 4 7.6 2.2
v 4.3 7.6 2.2
v 4.9 7.6 2.2
v 5.2 7.6 2.2
v 5.5 7.6 2.2
v 5.8 7.6 2.2
v 6.1 7.6 2.2
v 6.8 7.6 2.2
v 2.9 7.6 2.1
v 3.5 7.6 2.1
v 3.6 7.6 2.1
v 3.8 7.6 2.1
v 4 7.6 2.1
v 4.3 7.6 2.1
v 4.9 7.6 2.1
v 5.2 7.6 2.1
v 5.5 7.6 2.1
v 5.8 7.6 2.1
v 6.1 7.6 2.1
v 6.7 7.6 2.1
v 2.8 7.6 2
v 2.9 7.6 2
v 3 7.6 2
v 6.6 7.6 2
v 2.8 7.6 1.9
v 2.9 7.6 1.9
v 2.8 7.6 1.8
v 2.9 7.6 1.8
v 6.7 7.6 1.7
v 6.8 7.6 1.7
v 2.8 7.6 1.6
v 2.9 7.6 1.6
v 6.7 7.6 1.6
v 6.8 7.6 1.6
v 6.7 7.6 1.5
v 6.8 7.6 1.5
v 2.8 7.6 1.4
v 2.9 7.6 1.4
v 6.7 7.6 1.3
v 6.8 7.6 1.3
v 2.8 7.6 1.2
v 2.9 7.6 1.2
v 3 7.6 1
v 6.6 7.6 1
v 2.9 7.6 0.9
v 3.2 7.6 0.9
v 4.1 7.6 0.9
v 4.6 7.6 0.9
v 5 7.6 0.9
v 5.5 7.6 0.9
v 5.8 7.6 0.9
v 6 7.6 0.9
v 6.1 7.6 0.9
v 6.5 7.6 0.9
v 6.6 7.6 0.9
v 6.7 7.6 0.9
v 2.8 7.6 0.8
v 3.2 7.6 0.8
v 4.1 7.6 0.8
v 4.6 7.6 0.8
v 5 7.6 0.8
v 5.5 7.6 0.8
v 5.8 7.6 0.8
v 6 7.6 0.8
v 6.1 7.6 0.8
v 6.5 7.6 0.8
v 6.6 7.6 0.8
v 6.8 7.6 0.8
v 3 7.8 2
v 6.6 7.8 2
v 3 7.8 1
v 6.6 7.8 1
v 2.8 7.9 2.2
v 6.8 7.9 2.2
v 2.8 7.9 0.8
v 6.8 7.9 0.8

# faces
f 9/1/1 2/1/1 1/1/1
f 10/2/1 3/2/1 2/2/1
f 10/1/1 2/1/1 9/1/1
f 11/1/1 4/1/1 3/1/1
f 11/2/1 3/2/1 10/2/1
f 12/2/1 5/2/1 4/2/1
f 12/1/1 4/1/1 11/1/1
f 13/1/1 6/1/1 5/1/1
f 13/2/1 5/2/1 12/2/1
f 14/2/1 7/2/1 6/2/1
f 14/1/1 6/1/1 13/1/1
f 15/1/1 8/1/1 7/1/1
f 15/2/1 7/2/1 14/2/1
f 16/1/1 8/1/1 15/1/1
f 17/2/1 14/2/1 13/2/1
f 17/2/1 10/2/1 9/2/1
f 17/2/1 16/2/1 15/2/1
f 17/2/1 15/2/1 14/2/1
f 17/2/1 13/2/1 12/2/1
f 17/2/1 12/2/1 11/2/1
f 17/2/1 11/2/1 10/2/1
f 18/2/1 16/2/1 17/2/1
f 21/2/1 20/2/1 19/2/1
f 22/2/1 20/2/1 21/2/1
f 23/2/2 24/2/2 25/2/2
f 25/2/2 24/2/2 26/2/2
f 27/1/2 28/1/2 33/1/2
f 28/2/2 29/2/2 34/2/2
f 33/1/2 28/1/2 34/1/2
f 29/1/2 30/1/2 35/1/2
f 34/2/2 29/2/2 35/2/2
f 30/2/2 31/2/2 36/2/2
f 35/1/2 30/1/2 36/1/2
f 31/1/2 32/1/2 37/1/2
f 36/2/2 31/2/2 37/2/2
f 37/1/2 32/1/2 38/1/2
f 35/2/2 36/2/2 39/2/2
f 33/2/2 34/2/2 39/2/2
f 37/2/2 38/2/2 39/2/2
f 36/2/2 37/2/2 39/2/2
f 34/2/2 35/2/2 39/2/2
f 39/2/2 38/2/2 40/2/2
f 44/1/3 42/1/3 41/1/3
f 45/2/3 43/2/3 42/2/3
f 45/1/3 42/1/3 44/1/3
f 46/2/3 45/2/3 44/2/3
f 47/2/3 43/2/3 45/2/3
f 47/2/3 45/2/3 46/2/3
f 48/1/3 47/1/3 46/1/3
f 49/2/3 43/2/3 47/2/3
f 49/1/3 47/1/3 48/1/3
f 50/2/3 49/2/3 48/2/3
f 51/2/3 43/2/3 49/2/3
f 51/2/3 49/2/3 50/2/3
f 52/1/3 51/1/3 50/1/3
f 53/2/3 43/2/3 51/2/3
f 53/1/3 51/1/3 52/1/3
f 54/2/3 53/2/3 52/2/3
f 55/2/3 43/2/3 53/2/3
f 55/2/3 53/2/3 54/2/3
f 56/1/3 55/1/3 54/1/3
f 57/2/3 43/2/3 55/2/3
f 57/1/3 55/1/3 56/1/3
f 58/2/3 57/2/3 56/2/3
f 59/2/3 43/2/3 57/2/3
f 59/2/3 57/2/3 58/2/3
f 60/1/3 59/1/3 58/1/3
f 61/2/3 43/2/3 59/2/3
f 61/1/3 59/1/3 60/1/3
f 62/2/3 61/2/3 60/2/3
f 63/2/3 43/2/3 61/2/3
f 63/2/3 61/2/3 62/2/3
f 64/1/3 63/1/3 62/1/3
f 65/2/3 43/2/3 63/2/3
f 65/1/3 63/1/3 64/1/3
f 66/2/3 43/2/3 65/2/3
f 69/2/3 68/2/3 67/2/3
f 70/2/3 68/2/3 69/2/3
f 71/2/4 72/2/4 73/2/4
f 73/2/4 72/2/4 74/2/4
f 75/1/4 76/1/4 78/1/4
f 76/2/4 77/2/4 79/2/4
f 78/1/4 76/1/4 79/1/4
f 78/2/4 79/2/4 80/2/4
f 79/2/4 77/2/4 81/2/4
f 80/2/4 79/2/4 81/2/4
f 80/1/4 81/1/4 82/1/4
f 81/2/4 77/2/4 83/2/4
f 82/1/4 81/1/4 83/1/4
f 82/2/4 83/2/4 84/2/4
f 83/2/4 77/2/4 85/2/4
f 84/2/4 83/2/4 85/2/4
f 84/1/4 85/1/4 86/1/4
f 85/2/4 77/2/4 87/2/4
f 86/1/4 85/1/4 87/1/4
f 86/2/4 87/2/4 88/2/4
f 87/2/4 77/2/4 89/2/4
f 88/2/4 87/2/4 89/2/4
f 88/1/4 89/1/4 90/1/4
f 89/2/4 77/2/4 91/2/4
f 90/1/4 89/1/4 91/1/4
f 90/2/4 91/2/4 92/2/4
f 91/2/4 77/2/4 93/2/4
f 92/2/4 91/2/4 93/2/4
f 92/1/4 93/1/4 94/1/4
f 93/2/4 77/2/4 95/2/4
f 94/1/4 93/1/4 95/1/4
f 94/2/4 95/2/4 96/2/4
f 95/2/4 77/2/4 97/2/4
f 96/2/4 95/2/4 97/2/4
f 96/1/4 97/1/4 98/1/4
f 97/2/4 77/2/4 99/2/4
f 98/1/4 97/1/4 99/1/4
f 99/2/4 77/2/4 100/2/4
f 113/1/5 102/1/5 101/1/5
f 114/2/5 103/2/5 102/2/5
f 114/1/5 102/1/5 113/1/5
f 115/1/5 104/1/5 103/1/5
f 115/2/5 103/2/5 114/2/5
f 116/2/5 105/2/5 104/2/5
f 116/1/5 104/1/5 115/1/5
f 117/1/5 106/1/5 105/1/5
f 117/2/5 105/2/5 116/2/5
f 118/2/5 107/2/5 106/2/5
f 118/1/5 106/1/5 117/1/5
f 119/1/5 108/1/5 107/1/5
f 119/2/5 107/2/5 118/2/5
f 120/2/5 109/2/5 108/2/5
f 120/1/5 108/1/5 119/1/5
f 121/1/5 110/1/5 109/1/5
f 121/2/5 109/2/5 120/2/5
f 122/2/5 111/2/5 110/2/5
f 122/1/5 110/1/5 121/1/5
f 123/1/5 112/1/5 111/1/5
f 123/2/5 111/2/5 122/2/5
f 124/1/5 112/1/5 123/1/5
f 125/1/5 113/1/5 101/1/5
f 126/2/5 122/2/5 121/2/5
f 126/1/5 113/1/5 125/1/5
f 126/2/5 114/2/5 113/2/5
f 126/2/5 124/2/5 123/2/5
f 126/2/5 123/2/5 122/2/5
f 126/2/5 121/2/5 120/2/5
f 126/2/5 120/2/5 119/2/5
f 126/2/5 119/2/5 118/2/5
f 126/2/5 118/2/5 117/2/5
f 126/2/5 117/2/5 116/2/5
f 126/2/5 116/2/5 115/2/5
f 126/2/5 115/2/5 114/2/5
f 127/2/5 124/2/5 126/2/5
f 128/2/5 124/2/5 127/2/5
f 129/2/5 126/2/5 125/2/5
f 129/2/5 127/2/5 126/2/5
f 130/2/5 127/2/5 129/2/5
f 131/1/5 130/1/5 129/1/5
f 132/2/5 127/2/5 130/2/5
f 132/1/5 130/1/5 131/1/5
f 133/1/5 112/1/5 124/1/5
f 133/2/5 124/2/5 128/2/5
f 134/1/5 112/1/5 133/1/5
f 135/2/5 132/2/5 131/2/5
f 136/2/5 127/2/5 132/2/5
f 136/2/5 132/2/5 135/2/5
f 137/2/5 133/2/5 128/2/5
f 137/2/5 134/2/5 133/2/5
f 138/2/5 134/2/5 137/2/5
f 139/2/5 137/2/5 128/2/5
f 139/1/5 138/1/5 137/1/5
f 140/1/5 138/1/5 139/1/5
f 141/1/5 136/1/5 135/1/5
f 142/2/5 127/2/5 136/2/5
f 142/1/5 136/1/5 141/1/5
f 143/2/5 139/2/5 128/2/5
f 143/2/5 140/2/5 139/2/5
f 144/2/5 140/2/5 143/2/5
f 145/2/5 142/2/5 141/2/5
f 146/2/5 127/2/5 142/2/5
f 146/2/5 142/2/5 145/2/5
f 147/2/5 127/2/5 146/2/5
f 148/2/5 143/2/5 128/2/5
f 149/2/5 147/2/5 146/2/5
f 149/2/5 148/2/5 147/2/5
f 149/1/5 146/1/5 145/1/5
f 150/2/5 148/2/5 149/2/5
f 151/2/5 148/2/5 150/2/5
f 152/2/5 148/2/5 151/2/5
f 153/2/5 148/2/5 152/2/5
f 154/2/5 148/2/5 153/2/5
f 155/2/5 148/2/5 154/2/5
f 156/2/5 148/2/5 155/2/5
f 157/2/5 148/2/5 156/2/5
f 158/2/5 148/2/5 157/2/5
f 159/2/5 143/2/5 148/2/5
f 159/2/5 148/2/5 158/2/5
f 160/1/5 144/1/5 143/1/5
f 160/2/5 143/2/5 159/2/5
f 161/1/5 149/1/5 145/1/5
f 161/1/5 150/1/5 149/1/5
f 162/2/5 151/2/5 150/2/5
f 162/1/5 150/1/5 161/1/5
f 163/1/5 152/1/5 151/1/5
f 163/2/5 151/2/5 162/2/5
f 164/2/5 153/2/5 152/2/5
f 164/1/5 152/1/5 163/1/5
f 165/1/5 154/1/5 153/1/5
f 165/2/5 153/2/5 164/2/5
f 166/2/5 155/2/5 154/2/5
f 166/1/5 154/1/5 165/1/5
f 167/1/5 156/1/5 155/1/5
f 167/2/5 155/2/5 166/2/5
f 168/2/5 157/2/5 156/2/5
f 168/1/5 156/1/5 167/1/5
f 169/1/5 158/1/5 157/1/5
f 169/2/5 157/2/5 168/2/5
f 170/2/5 159/2/5 158/2/5
f 170/1/5 158/1/5 169/1/5
f 171/1/5 160/1/5 159/1/5
f 171/2/5 159/2/5 170/2/5
f 172/1/5 144/1/5 160/1/5
f 172/1/5 160/1/5 171/1/5
f 175/2/5 174/2/5 173/2/5
f 176/2/5 174/2/5 175/2/5
f 177/2/6 178/2/6 179/2/6
f 179/2/6 178/2/6 180/2/6
