# MagicaVoxel @ Ephtracy

# group
o 

# material
mtllib Cabbage.mtl
usemtl palette

# normals
vn -1 0 0
vn 1 0 0
vn 0 0 1
vn 0 0 -1
vn 0 -1 0
vn 0 1 0

# texcoords
vt 0.533203 0.5
vt 0.537109 0.5
vt 0.544922 0.5
vt 0.548828 0.5

# verts
v -0.2 0 0.1
v -0.2 0 0
v -0.2 0.1 0
v -0.2 0.1 -0.1
v -0.2 0.2 0.2
v -0.2 0.2 0.1
v -0.2 0.3 0.1
v -0.2 0.3 0
v -0.2 0.3 -0.1
v -0.2 0.4 0.2
v -0.2 0.4 0.1
v -0.2 0.4 0
v -0.2 0.4 -0.1
v -0.2 0.5 0.1
v -0.2 0.5 0
v -0.1 0.1 0.2
v -0.1 0.1 0.1
v -0.1 0.2 0.2
v -0.1 0.2 0.1
v -0.1 0.4 0.2
v -0.1 0.4 0.1
v -0.1 0.4 0
v -0.1 0.4 -0.1
v -0.1 0.5 0.2
v -0.1 0.5 0.1
v -0.1 0.5 0
v -0.1 0.5 -0.1
v -0.1 0.6 0.1
v -0.1 0.6 0
v 0 0 0.1
v 0 0 0
v 0 0.1 0.2
v 0 0.1 0.1
v 0 0.1 0
v 0 0.1 -0.1
v 0 0.2 0.2
v 0 0.2 0.1
v 0 0.3 0
v 0 0.3 -0.1
v 0 0.4 0.2
v 0 0.4 0.1
v 0 0.4 0
v 0 0.4 -0.1
v 0 0.5 0.2
v 0 0.5 0.1
v 0 0.5 0
v 0 0.5 -0.1
v 0 0.6 0.1
v 0 0.6 0
v 0.1 0.1 0.1
v 0.1 0.1 0
v 0.1 0.2 0.2
v 0.1 0.2 0.1
v 0.1 0.3 0.2
v 0.1 0.3 0.1
v 0.1 0.3 0
v 0.1 0.3 -0.1
v 0.1 0.4 0.2
v 0.1 0.4 0.1
v 0.1 0.4 0
v 0.1 0.4 -0.1
v 0.1 0.5 0.1
v 0.1 0.5 0
v -0.2 0.2 0.2
v -0.2 0.4 0.2
v -0.1 0.1 0.2
v -0.1 0.2 0.2
v -0.1 0.3 0.2
v -0.1 0.4 0.2
v -0.1 0.5 0.2
v 0 0.1 0.2
v 0 0.2 0.2
v 0 0.3 0.2
v 0 0.4 0.2
v 0 0.5 0.2
v 0.1 0.2 0.2
v 0.1 0.3 0.2
v 0.1 0.4 0.2
v -0.2 0 0.1
v -0.2 0.2 0.1
v -0.2 0.4 0.1
v -0.2 0.5 0.1
v -0.1 0.1 0.1
v -0.1 0.2 0.1
v -0.1 0.4 0.1
v -0.1 0.5 0.1
v -0.1 0.6 0.1
v 0 0 0.1
v 0 0.1 0.1
v 0 0.2 0.1
v 0 0.4 0.1
v 0 0.5 0.1
v 0 0.6 0.1
v 0.1 0.1 0.1
v 0.1 0.2 0.1
v 0.1 0.4 0.1
v 0.1 0.5 0.1
v -0.2 0 0
v -0.2 0.1 0
v -0.2 0.4 0
v -0.2 0.5 0
v -0.1 0.1 0
v -0.1 0.4 0
v -0.1 0.5 0
v -0.1 0.6 0
v 0 0 0
v 0 0.1 0
v 0 0.3 0
v 0 0.4 0
v 0 0.5 0
v 0 0.6 0
v 0.1 0.1 0
v 0.1 0.3 0
v 0.1 0.4 0
v 0.1 0.5 0
v -0.2 0.1 -0.1
v -0.2 0.3 -0.1
v -0.2 0.4 -0.1
v -0.1 0.1 -0.1
v -0.1 0.3 -0.1
v -0.1 0.4 -0.1
v -0.1 0.5 -0.1
v 0 0.1 -0.1
v 0 0.3 -0.1
v 0 0.4 -0.1
v 0 0.5 -0.1
v 0.1 0.3 -0.1
v 0.1 0.4 -0.1
v -0.2 0 0.1
v 0 0 0.1
v -0.2 0 0
v 0 0 0
v -0.1 0.1 0.2
v 0 0.1 0.2
v -0.1 0.1 0.1
v 0 0.1 0.1
v 0.1 0.1 0.1
v -0.2 0.1 0
v -0.1 0.1 0
v 0 0.1 0
v 0.1 0.1 0
v -0.2 0.1 -0.1
v -0.1 0.1 -0.1
v 0 0.1 -0.1
v -0.2 0.2 0.2
v -0.1 0.2 0.2
v 0 0.2 0.2
v 0.1 0.2 0.2
v -0.2 0.2 0.1
v -0.1 0.2 0.1
v 0 0.2 0.1
v 0.1 0.2 0.1
v 0 0.3 0
v 0.1 0.3 0
v 0 0.3 -0.1
v 0.1 0.3 -0.1
v -0.2 0.4 0.2
v -0.1 0.4 0.2
v 0 0.4 0.2
v 0.1 0.4 0.2
v -0.2 0.4 0.1
v -0.1 0.4 0.1
v 0 0.4 0.1
v 0.1 0.4 0.1
v -0.2 0.4 0
v -0.1 0.4 0
v 0 0.4 0
v 0.1 0.4 0
v -0.2 0.4 -0.1
v -0.1 0.4 -0.1
v 0 0.4 -0.1
v 0.1 0.4 -0.1
v -0.1 0.5 0.2
v 0 0.5 0.2
v -0.2 0.5 0.1
v -0.1 0.5 0.1
v 0 0.5 0.1
v 0.1 0.5 0.1
v -0.2 0.5 0
v -0.1 0.5 0
v 0 0.5 0
v 0.1 0.5 0
v -0.1 0.5 -0.1
v 0 0.5 -0.1
v -0.1 0.6 0.1
v 0 0.6 0.1
v -0.1 0.6 0
v 0 0.6 0

# faces
f 3/1/1 2/1/1 1/1/1
f 6/1/1 3/1/1 1/1/1
f 7/1/1 3/1/1 6/1/1
f 7/4/1 6/4/1 5/4/1
f 8/4/1 4/4/1 3/4/1
f 8/1/1 3/1/1 7/1/1
f 9/4/1 4/4/1 8/4/1
f 10/4/1 7/4/1 5/4/1
f 11/3/1 8/3/1 7/3/1
f 11/4/1 7/4/1 10/4/1
f 11/3/1 9/3/1 8/3/1
f 12/3/1 9/3/1 11/3/1
f 13/3/1 9/3/1 12/3/1
f 14/2/1 12/2/1 11/2/1
f 15/2/1 12/2/1 14/2/1
f 18/1/1 17/1/1 16/1/1
f 19/1/1 17/1/1 18/1/1
f 24/3/1 21/3/1 20/3/1
f 25/3/1 21/3/1 24/3/1
f 26/2/1 23/2/1 22/2/1
f 27/2/1 23/2/1 26/2/1
f 28/3/1 26/3/1 25/3/1
f 29/3/1 26/3/1 28/3/1
f 30/1/2 31/1/2 33/1/2
f 33/1/2 31/1/2 34/1/2
f 32/1/2 33/1/2 36/1/2
f 36/1/2 33/1/2 37/1/2
f 34/1/2 35/1/2 38/1/2
f 38/1/2 35/1/2 39/1/2
f 40/3/2 41/3/2 44/3/2
f 44/3/2 41/3/2 45/3/2
f 42/2/2 43/2/2 46/2/2
f 46/2/2 43/2/2 47/2/2
f 45/3/2 46/3/2 48/3/2
f 48/3/2 46/3/2 49/3/2
f 50/4/2 51/4/2 53/4/2
f 52/4/2 53/4/2 54/4/2
f 53/4/2 51/4/2 55/4/2
f 54/4/2 53/4/2 55/4/2
f 55/4/2 51/4/2 56/4/2
f 54/2/2 55/2/2 58/2/2
f 56/4/2 57/4/2 59/4/2
f 58/2/2 55/2/2 59/2/2
f 55/4/2 56/4/2 59/4/2
f 59/4/2 57/4/2 60/4/2
f 60/4/2 57/4/2 61/4/2
f 59/4/2 60/4/2 62/4/2
f 62/4/2 60/4/2 63/4/2
f 67/4/3 65/4/3 64/4/3
f 68/4/3 65/4/3 67/4/3
f 69/4/3 65/4/3 68/4/3
f 71/1/3 67/1/3 66/1/3
f 71/1/3 68/1/3 67/1/3
f 72/1/3 68/1/3 71/1/3
f 73/4/3 69/4/3 68/4/3
f 73/1/3 68/1/3 72/1/3
f 74/3/3 70/3/3 69/3/3
f 74/4/3 69/4/3 73/4/3
f 75/3/3 70/3/3 74/3/3
f 76/4/3 73/4/3 72/4/3
f 77/2/3 74/2/3 73/2/3
f 77/4/3 73/4/3 76/4/3
f 78/2/3 74/2/3 77/2/3
f 83/1/3 80/1/3 79/1/3
f 84/1/3 80/1/3 83/1/3
f 85/2/3 82/2/3 81/2/3
f 86/2/3 82/2/3 85/2/3
f 88/1/3 83/1/3 79/1/3
f 89/1/3 83/1/3 88/1/3
f 92/3/3 87/3/3 86/3/3
f 93/3/3 87/3/3 92/3/3
f 94/4/3 90/4/3 89/4/3
f 95/4/3 90/4/3 94/4/3
f 96/4/3 92/4/3 91/4/3
f 97/4/3 92/4/3 96/4/3
f 98/1/4 99/1/4 102/1/4
f 100/2/4 101/2/4 103/2/4
f 103/2/4 101/2/4 104/2/4
f 98/1/4 102/1/4 106/1/4
f 106/1/4 102/1/4 107/1/4
f 104/3/4 105/3/4 110/3/4
f 110/3/4 105/3/4 111/3/4
f 107/4/4 108/4/4 112/4/4
f 112/4/4 108/4/4 113/4/4
f 109/4/4 110/4/4 114/4/4
f 114/4/4 110/4/4 115/4/4
f 116/4/4 117/4/4 119/4/4
f 117/3/4 118/3/4 120/3/4
f 119/4/4 117/4/4 120/4/4
f 120/3/4 118/3/4 121/3/4
f 119/1/4 120/1/4 123/1/4
f 120/4/4 121/4/4 124/4/4
f 123/1/4 120/1/4 124/1/4
f 121/2/4 122/2/4 125/2/4
f 124/4/4 121/4/4 125/4/4
f 125/2/4 122/2/4 126/2/4
f 124/4/4 125/4/4 127/4/4
f 127/4/4 125/4/4 128/4/4
f 131/1/5 130/1/5 129/1/5
f 132/1/5 130/1/5 131/1/5
f 135/1/5 134/1/5 133/1/5
f 136/1/5 134/1/5 135/1/5
f 140/4/5 137/4/5 136/4/5
f 141/4/5 137/4/5 140/4/5
f 142/4/5 139/4/5 138/4/5
f 143/1/5 140/1/5 139/1/5
f 143/4/5 139/4/5 142/4/5
f 144/1/5 140/1/5 143/1/5
f 149/4/5 146/4/5 145/4/5
f 150/4/5 146/4/5 149/4/5
f 151/4/5 148/4/5 147/4/5
f 152/4/5 148/4/5 151/4/5
f 155/4/5 154/4/5 153/4/5
f 156/4/5 154/4/5 155/4/5
f 157/4/6 158/4/6 161/4/6
f 161/4/6 158/4/6 162/4/6
f 159/2/6 160/2/6 163/2/6
f 163/2/6 160/2/6 164/2/6
f 165/3/6 166/3/6 169/3/6
f 169/3/6 166/3/6 170/3/6
f 167/4/6 168/4/6 171/4/6
f 171/4/6 168/4/6 172/4/6
f 173/3/6 174/3/6 176/3/6
f 176/3/6 174/3/6 177/3/6
f 175/2/6 176/2/6 179/2/6
f 179/2/6 176/2/6 180/2/6
f 177/4/6 178/4/6 181/4/6
f 181/4/6 178/4/6 182/4/6
f 180/2/6 181/2/6 183/2/6
f 183/2/6 181/2/6 184/2/6
f 185/3/6 186/3/6 187/3/6
f 187/3/6 186/3/6 188/3/6
