# MagicaVoxel @ Ephtracy

# group
o 

# material
mtllib CleatPotato.mtl
usemtl palette

# normals
vn -1 0 0
vn 1 0 0
vn 0 0 1
vn 0 0 -1
vn 0 -1 0
vn 0 1 0

# texcoords
vt 0.345703 0.5
vt 0.392578 0.5
vt 0.416016 0.5

# verts
v -1.1 0.4 -0.1
v -1.1 0.4 -0.2
v -1.1 0.4 -0.3
v -1.1 0.5 -0.2
v -1.1 0.5 -0.3
v -1.1 0.6 -0.1
v -1.1 0.6 -0.3
v -0.9 0.4 -0.1
v -0.9 0.4 -0.3
v -0.9 0.5 -0.2
v -0.9 0.5 -0.3
v -0.9 0.6 -0.1
v -0.9 0.6 -0.2
v -0.9 0.6 -0.3
v -1.1 0.4 -0.1
v -1.1 0.6 -0.1
v -0.9 0.4 -0.1
v -0.9 0.6 -0.1
v -1.1 0.4 -0.3
v -1.1 0.5 -0.3
v -1.1 0.6 -0.3
v -1 0.4 -0.3
v -1 0.5 -0.3
v -1 0.6 -0.3
v -0.9 0.4 -0.3
v -0.9 0.5 -0.3
v -0.9 0.6 -0.3
v -1.1 0.4 -0.1
v -0.9 0.4 -0.1
v -1.1 0.4 -0.2
v -1 0.4 -0.2
v -1.1 0.4 -0.3
v -1 0.4 -0.3
v -0.9 0.4 -0.3
v -1.1 0.6 -0.1
v -0.9 0.6 -0.1
v -1 0.6 -0.2
v -0.9 0.6 -0.2
v -1.1 0.6 -0.3
v -1 0.6 -0.3
v -0.9 0.6 -0.3

# faces
f 4/3/1 2/3/1 1/3/1
f 4/1/1 3/1/1 2/1/1
f 5/1/1 3/1/1 4/1/1
f 6/3/1 4/3/1 1/3/1
f 6/3/1 5/3/1 4/3/1
f 7/3/1 5/3/1 6/3/1
f 8/3/2 9/3/2 10/3/2
f 10/3/2 9/3/2 11/3/2
f 8/3/2 10/3/2 12/3/2
f 10/2/2 11/2/2 13/2/2
f 12/3/2 10/3/2 13/3/2
f 13/2/2 11/2/2 14/2/2
f 17/3/3 16/3/3 15/3/3
f 18/3/3 16/3/3 17/3/3
f 19/1/4 20/1/4 22/1/4
f 20/3/4 21/3/4 23/3/4
f 22/1/4 20/1/4 23/1/4
f 23/3/4 21/3/4 24/3/4
f 22/3/4 23/3/4 25/3/4
f 23/2/4 24/2/4 26/2/4
f 25/3/4 23/3/4 26/3/4
f 26/2/4 24/2/4 27/2/4
f 30/3/5 29/3/5 28/3/5
f 31/3/5 29/3/5 30/3/5
f 32/1/5 31/1/5 30/1/5
f 33/3/5 29/3/5 31/3/5
f 33/1/5 31/1/5 32/1/5
f 34/3/5 29/3/5 33/3/5
f 35/3/6 36/3/6 37/3/6
f 37/3/6 36/3/6 38/3/6
f 35/3/6 37/3/6 39/3/6
f 37/2/6 38/2/6 40/2/6
f 39/3/6 37/3/6 40/3/6
f 40/2/6 38/2/6 41/2/6
