# MagicaVoxel @ Ephtracy

# group
o 

# material
mtllib Salt.mtl
usemtl palette

# normals
vn -1 0 0
vn 1 0 0
vn 0 0 1
vn 0 0 -1
vn 0 -1 0
vn 0 1 0

# texcoords
vt 0.712891 0.5
vt 0.720703 0.5
vt 0.724609 0.5
vt 0.740234 0.5

# verts
v -0.2 0 0.1
v -0.2 0 0
v -0.2 0 -0.1
v -0.2 0.1 0.1
v -0.2 0.1 0
v -0.2 0.1 -0.1
v -0.2 0.2 0.1
v -0.2 0.2 0
v -0.2 0.2 -0.1
v -0.2 0.3 0
v -0.2 0.3 -0.1
v -0.2 0.4 0.1
v -0.2 0.4 -0.1
v -0.1 0 0.2
v -0.1 0 0.1
v -0.1 0 -0.1
v -0.1 0 -0.2
v -0.1 0.1 0.2
v -0.1 0.1 0.1
v -0.1 0.1 -0.1
v -0.1 0.1 -0.2
v -0.1 0.2 0.2
v -0.1 0.2 0.1
v -0.1 0.2 -0.1
v -0.1 0.2 -0.2
v -0.1 0.3 0.2
v -0.1 0.3 0.1
v -0.1 0.3 -0.1
v -0.1 0.4 0.2
v -0.1 0.4 0.1
v -0.1 0.4 0
v -0.1 0.4 -0.1
v -0.1 0.4 -0.2
v -0.1 0.5 0.1
v -0.1 0.5 0
v -0.1 0.5 -0.1
v 0.1 0 0.2
v 0.1 0 0.1
v 0.1 0 -0.1
v 0.1 0 -0.2
v 0.1 0.1 0.2
v 0.1 0.1 0.1
v 0.1 0.1 -0.1
v 0.1 0.1 -0.2
v 0.1 0.2 0.2
v 0.1 0.2 0.1
v 0.1 0.2 -0.1
v 0.1 0.2 -0.2
v 0.1 0.3 0.1
v 0.1 0.3 -0.1
v 0.1 0.3 -0.2
v 0.1 0.4 0.2
v 0.1 0.4 0.1
v 0.1 0.4 0
v 0.1 0.4 -0.1
v 0.1 0.4 -0.2
v 0.1 0.5 0.1
v 0.1 0.5 0
v 0.1 0.5 -0.1
v 0.2 0 0.1
v 0.2 0 0
v 0.2 0 -0.1
v 0.2 0.1 0.1
v 0.2 0.1 0
v 0.2 0.1 -0.1
v 0.2 0.2 0.1
v 0.2 0.2 0
v 0.2 0.2 -0.1
v 0.2 0.3 0.1
v 0.2 0.3 0
v 0.2 0.4 0.1
v 0.2 0.4 -0.1
v -0.1 0 0.2
v -0.1 0.1 0.2
v -0.1 0.2 0.2
v -0.1 0.3 0.2
v -0.1 0.4 0.2
v 0 0 0.2
v 0 0.1 0.2
v 0 0.2 0.2
v 0 0.3 0.2
v 0.1 0 0.2
v 0.1 0.1 0.2
v 0.1 0.2 0.2
v 0.1 0.4 0.2
v -0.2 0 0.1
v -0.2 0.1 0.1
v -0.2 0.2 0.1
v -0.2 0.4 0.1
v -0.1 0 0.1
v -0.1 0.1 0.1
v -0.1 0.2 0.1
v -0.1 0.3 0.1
v -0.1 0.4 0.1
v -0.1 0.5 0.1
v 0 0.4 0.1
v 0 0.5 0.1
v 0.1 0 0.1
v 0.1 0.1 0.1
v 0.1 0.2 0.1
v 0.1 0.3 0.1
v 0.1 0.4 0.1
v 0.1 0.5 0.1
v 0.2 0 0.1
v 0.2 0.1 0.1
v 0.2 0.2 0.1
v 0.2 0.3 0.1
v 0.2 0.4 0.1
v -0.2 0 -0.1
v -0.2 0.1 -0.1
v -0.2 0.2 -0.1
v -0.2 0.3 -0.1
v -0.2 0.4 -0.1
v -0.1 0 -0.1
v -0.1 0.1 -0.1
v -0.1 0.2 -0.1
v -0.1 0.3 -0.1
v -0.1 0.4 -0.1
v -0.1 0.5 -0.1
v 0 0.4 -0.1
v 0 0.5 -0.1
v 0.1 0 -0.1
v 0.1 0.1 -0.1
v 0.1 0.2 -0.1
v 0.1 0.3 -0.1
v 0.1 0.4 -0.1
v 0.1 0.5 -0.1
v 0.2 0 -0.1
v 0.2 0.1 -0.1
v 0.2 0.2 -0.1
v 0.2 0.4 -0.1
v -0.1 0 -0.2
v -0.1 0.1 -0.2
v -0.1 0.2 -0.2
v -0.1 0.4 -0.2
v 0 0 -0.2
v 0 0.1 -0.2
v 0 0.2 -0.2
v 0 0.3 -0.2
v 0.1 0 -0.2
v 0.1 0.1 -0.2
v 0.1 0.2 -0.2
v 0.1 0.3 -0.2
v 0.1 0.4 -0.2
v -0.1 0 0.2
v 0 0 0.2
v 0.1 0 0.2
v -0.2 0 0.1
v -0.1 0 0.1
v 0 0 0.1
v 0.1 0 0.1
v 0.2 0 0.1
v -0.2 0 0
v -0.1 0 0
v 0.1 0 0
v 0.2 0 0
v -0.2 0 -0.1
v -0.1 0 -0.1
v 0 0 -0.1
v 0.1 0 -0.1
v 0.2 0 -0.1
v -0.1 0 -0.2
v 0 0 -0.2
v 0.1 0 -0.2
v -0.1 0.4 0.2
v 0.1 0.4 0.2
v -0.2 0.4 0.1
v -0.1 0.4 0.1
v 0 0.4 0.1
v 0.1 0.4 0.1
v 0.2 0.4 0.1
v -0.1 0.4 0
v 0.1 0.4 0
v -0.2 0.4 -0.1
v -0.1 0.4 -0.1
v 0 0.4 -0.1
v 0.1 0.4 -0.1
v 0.2 0.4 -0.1
v -0.1 0.4 -0.2
v 0.1 0.4 -0.2
v -0.1 0.5 0.1
v 0 0.5 0.1
v 0.1 0.5 0.1
v -0.1 0.5 0
v 0 0.5 0
v 0.1 0.5 0
v -0.1 0.5 -0.1
v 0 0.5 -0.1
v 0.1 0.5 -0.1

# faces
f 4/4/1 2/4/1 1/4/1
f 5/3/1 3/3/1 2/3/1
f 5/4/1 2/4/1 4/4/1
f 6/3/1 3/3/1 5/3/1
f 7/3/1 5/3/1 4/3/1
f 8/4/1 6/4/1 5/4/1
f 8/3/1 5/3/1 7/3/1
f 9/4/1 6/4/1 8/4/1
f 10/4/1 8/4/1 7/4/1
f 10/3/1 9/3/1 8/3/1
f 11/3/1 9/3/1 10/3/1
f 12/4/1 10/4/1 7/4/1
f 12/4/1 11/4/1 10/4/1
f 13/4/1 11/4/1 12/4/1
f 18/3/1 15/3/1 14/3/1
f 19/3/1 15/3/1 18/3/1
f 20/4/1 17/4/1 16/4/1
f 21/4/1 17/4/1 20/4/1
f 22/4/1 19/4/1 18/4/1
f 23/4/1 19/4/1 22/4/1
f 24/3/1 21/3/1 20/3/1
f 25/3/1 21/3/1 24/3/1
f 26/3/1 23/3/1 22/3/1
f 27/3/1 23/3/1 26/3/1
f 28/4/1 25/4/1 24/4/1
f 29/4/1 27/4/1 26/4/1
f 30/4/1 27/4/1 29/4/1
f 32/4/1 25/4/1 28/4/1
f 33/4/1 25/4/1 32/4/1
f 34/1/1 31/1/1 30/1/1
f 35/2/1 32/2/1 31/2/1
f 35/1/1 31/1/1 34/1/1
f 36/2/1 32/2/1 35/2/1
f 37/4/2 38/4/2 41/4/2
f 41/4/2 38/4/2 42/4/2
f 39/3/2 40/3/2 43/3/2
f 43/3/2 40/3/2 44/3/2
f 41/3/2 42/3/2 45/3/2
f 45/3/2 42/3/2 46/3/2
f 43/4/2 44/4/2 47/4/2
f 47/4/2 44/4/2 48/4/2
f 45/4/2 46/4/2 49/4/2
f 47/3/2 48/3/2 50/3/2
f 50/3/2 48/3/2 51/3/2
f 45/4/2 49/4/2 52/4/2
f 52/4/2 49/4/2 53/4/2
f 50/4/2 51/4/2 55/4/2
f 55/4/2 51/4/2 56/4/2
f 53/2/2 54/2/2 57/2/2
f 54/1/2 55/1/2 58/1/2
f 57/2/2 54/2/2 58/2/2
f 58/1/2 55/1/2 59/1/2
f 60/3/2 61/3/2 63/3/2
f 61/4/2 62/4/2 64/4/2
f 63/3/2 61/3/2 64/3/2
f 64/4/2 62/4/2 65/4/2
f 63/4/2 64/4/2 66/4/2
f 64/3/2 65/3/2 67/3/2
f 66/4/2 64/4/2 67/4/2
f 67/3/2 65/3/2 68/3/2
f 66/3/2 67/3/2 69/3/2
f 67/4/2 68/4/2 70/4/2
f 69/3/2 67/3/2 70/3/2
f 69/4/2 70/4/2 71/4/2
f 70/4/2 68/4/2 72/4/2
f 71/4/2 70/4/2 72/4/2
f 78/3/3 74/3/3 73/3/3
f 79/4/3 75/4/3 74/4/3
f 79/3/3 74/3/3 78/3/3
f 80/3/3 76/3/3 75/3/3
f 80/4/3 75/4/3 79/4/3
f 81/4/3 77/4/3 76/4/3
f 81/3/3 76/3/3 80/3/3
f 82/4/3 79/4/3 78/4/3
f 83/3/3 80/3/3 79/3/3
f 83/4/3 79/4/3 82/4/3
f 84/4/3 81/4/3 80/4/3
f 84/3/3 80/3/3 83/3/3
f 85/4/3 77/4/3 81/4/3
f 85/4/3 81/4/3 84/4/3
f 90/4/3 87/4/3 86/4/3
f 91/3/3 88/3/3 87/3/3
f 91/4/3 87/4/3 90/4/3
f 92/4/3 89/4/3 88/4/3
f 92/3/3 88/3/3 91/3/3
f 93/4/3 89/4/3 92/4/3
f 94/4/3 89/4/3 93/4/3
f 96/1/3 95/1/3 94/1/3
f 97/1/3 95/1/3 96/1/3
f 102/2/3 97/2/3 96/2/3
f 103/2/3 97/2/3 102/2/3
f 104/3/3 99/3/3 98/3/3
f 105/4/3 100/4/3 99/4/3
f 105/3/3 99/3/3 104/3/3
f 106/3/3 101/3/3 100/3/3
f 106/4/3 100/4/3 105/4/3
f 107/4/3 102/4/3 101/4/3
f 107/3/3 101/3/3 106/3/3
f 108/4/3 102/4/3 107/4/3
f 109/3/4 110/3/4 114/3/4
f 110/4/4 111/4/4 115/4/4
f 114/3/4 110/3/4 115/3/4
f 111/3/4 112/3/4 116/3/4
f 115/4/4 111/4/4 116/4/4
f 112/4/4 113/4/4 117/4/4
f 116/3/4 112/3/4 117/3/4
f 117/4/4 113/4/4 118/4/4
f 118/2/4 119/2/4 120/2/4
f 120/2/4 119/2/4 121/2/4
f 120/1/4 121/1/4 126/1/4
f 126/1/4 121/1/4 127/1/4
f 122/4/4 123/4/4 128/4/4
f 123/3/4 124/3/4 129/3/4
f 128/4/4 123/4/4 129/4/4
f 124/4/4 125/4/4 130/4/4
f 129/3/4 124/3/4 130/3/4
f 125/4/4 126/4/4 130/4/4
f 130/4/4 126/4/4 131/4/4
f 132/4/4 133/4/4 136/4/4
f 133/3/4 134/3/4 137/3/4
f 136/4/4 133/4/4 137/4/4
f 134/4/4 135/4/4 138/4/4
f 137/3/4 134/3/4 138/3/4
f 138/4/4 135/4/4 139/4/4
f 136/3/4 137/3/4 140/3/4
f 137/4/4 138/4/4 141/4/4
f 140/3/4 137/3/4 141/3/4
f 138/3/4 139/3/4 142/3/4
f 141/4/4 138/4/4 142/4/4
f 139/4/4 135/4/4 143/4/4
f 142/3/4 139/3/4 143/3/4
f 143/4/4 135/4/4 144/4/4
f 149/3/5 146/3/5 145/3/5
f 150/4/5 147/4/5 146/4/5
f 150/3/5 146/3/5 149/3/5
f 151/4/5 147/4/5 150/4/5
f 153/4/5 149/4/5 148/4/5
f 154/3/5 152/3/5 151/3/5
f 154/4/5 149/4/5 153/4/5
f 154/3/5 150/3/5 149/3/5
f 154/3/5 151/3/5 150/3/5
f 155/3/5 152/3/5 154/3/5
f 156/3/5 152/3/5 155/3/5
f 157/3/5 154/3/5 153/3/5
f 157/3/5 155/3/5 154/3/5
f 158/3/5 155/3/5 157/3/5
f 159/3/5 155/3/5 158/3/5
f 160/4/5 156/4/5 155/4/5
f 160/3/5 155/3/5 159/3/5
f 161/4/5 156/4/5 160/4/5
f 162/4/5 159/4/5 158/4/5
f 163/3/5 160/3/5 159/3/5
f 163/4/5 159/4/5 162/4/5
f 164/3/5 160/3/5 163/3/5
f 165/4/6 166/4/6 168/4/6
f 168/4/6 166/4/6 169/4/6
f 169/4/6 166/4/6 170/4/6
f 167/4/6 168/4/6 172/4/6
f 170/4/6 171/4/6 173/4/6
f 167/4/6 172/4/6 174/4/6
f 174/4/6 172/4/6 175/4/6
f 173/4/6 171/4/6 177/4/6
f 177/4/6 171/4/6 178/4/6
f 175/4/6 176/4/6 179/4/6
f 176/4/6 177/4/6 179/4/6
f 179/4/6 177/4/6 180/4/6
f 181/1/6 182/1/6 184/1/6
f 182/2/6 183/2/6 185/2/6
f 184/1/6 182/1/6 185/1/6
f 185/2/6 183/2/6 186/2/6
f 184/2/6 185/2/6 187/2/6
f 185/1/6 186/1/6 188/1/6
f 187/2/6 185/2/6 188/2/6
f 188/1/6 186/1/6 189/1/6
