# MagicaVoxel @ Ephtracy

# group
o 

# material
mtllib Tomato.mtl
usemtl palette

# normals
vn -1 0 0
vn 1 0 0
vn 0 0 1
vn 0 0 -1
vn 0 -1 0
vn 0 1 0

# texcoords
vt 0.115234 0.5
vt 0.146484 0.5
vt 0.150391 0.5
vt 0.560547 0.5

# verts
v -0.1 0 0.1
v -0.1 0 0
v -0.1 0 -0.1
v -0.1 0.1 0.1
v -0.1 0.1 0
v -0.1 0.1 -0.1
v -0.1 0.2 0.1
v -0.1 0.2 0
v -0.1 0.2 -0.1
v 0 0.2 0.1
v 0 0.2 0
v 0 0.3 0.1
v 0 0.3 0
v 0.1 0 0.1
v 0.1 0 0
v 0.1 0 -0.1
v 0.1 0.1 0.1
v 0.1 0.1 0
v 0.1 0.1 -0.1
v 0.1 0.2 0.1
v 0.1 0.2 0
v 0.1 0.2 -0.1
v 0.1 0.3 0.1
v 0.1 0.3 0
v -0.1 0 0.1
v -0.1 0.1 0.1
v -0.1 0.2 0.1
v 0 0 0.1
v 0 0.1 0.1
v 0 0.2 0.1
v 0 0.3 0.1
v 0.1 0 0.1
v 0.1 0.1 0.1
v 0.1 0.2 0.1
v 0.1 0.3 0.1
v 0 0.2 0
v 0 0.3 0
v 0.1 0.2 0
v 0.1 0.3 0
v -0.1 0 -0.1
v -0.1 0.1 -0.1
v -0.1 0.2 -0.1
v 0 0 -0.1
v 0 0.1 -0.1
v 0 0.2 -0.1
v 0.1 0 -0.1
v 0.1 0.1 -0.1
v 0.1 0.2 -0.1
v -0.1 0 0.1
v 0 0 0.1
v 0.1 0 0.1
v -0.1 0 0
v 0 0 0
v 0.1 0 0
v -0.1 0 -0.1
v 0 0 -0.1
v 0.1 0 -0.1
v -0.1 0.2 0.1
v 0 0.2 0.1
v -0.1 0.2 0
v 0 0.2 0
v 0.1 0.2 0
v -0.1 0.2 -0.1
v 0 0.2 -0.1
v 0.1 0.2 -0.1
v 0 0.3 0.1
v 0.1 0.3 0.1
v 0 0.3 0
v 0.1 0.3 0

# faces
f 4/2/1 2/2/1 1/2/1
f 5/1/1 3/1/1 2/1/1
f 5/2/1 2/2/1 4/2/1
f 6/1/1 3/1/1 5/1/1
f 7/1/1 5/1/1 4/1/1
f 8/2/1 6/2/1 5/2/1
f 8/1/1 5/1/1 7/1/1
f 9/2/1 6/2/1 8/2/1
f 12/4/1 11/4/1 10/4/1
f 13/4/1 11/4/1 12/4/1
f 14/1/2 15/1/2 17/1/2
f 15/2/2 16/2/2 18/2/2
f 17/1/2 15/1/2 18/1/2
f 18/2/2 16/2/2 19/2/2
f 17/2/2 18/2/2 20/2/2
f 18/3/2 19/3/2 21/3/2
f 20/2/2 18/2/2 21/2/2
f 21/3/2 19/3/2 22/3/2
f 20/4/2 21/4/2 23/4/2
f 23/4/2 21/4/2 24/4/2
f 28/2/3 26/2/3 25/2/3
f 29/1/3 27/1/3 26/1/3
f 29/2/3 26/2/3 28/2/3
f 30/1/3 27/1/3 29/1/3
f 32/1/3 29/1/3 28/1/3
f 33/2/3 30/2/3 29/2/3
f 33/1/3 29/1/3 32/1/3
f 34/4/3 31/4/3 30/4/3
f 34/2/3 30/2/3 33/2/3
f 35/4/3 31/4/3 34/4/3
f 36/4/4 37/4/4 38/4/4
f 38/4/4 37/4/4 39/4/4
f 40/1/4 41/1/4 43/1/4
f 41/2/4 42/2/4 44/2/4
f 43/1/4 41/1/4 44/1/4
f 44/2/4 42/2/4 45/2/4
f 43/2/4 44/2/4 46/2/4
f 44/3/4 45/3/4 47/3/4
f 46/2/4 44/2/4 47/2/4
f 47/3/4 45/3/4 48/3/4
f 52/2/5 50/2/5 49/2/5
f 53/1/5 51/1/5 50/1/5
f 53/2/5 50/2/5 52/2/5
f 54/1/5 51/1/5 53/1/5
f 55/1/5 53/1/5 52/1/5
f 56/2/5 54/2/5 53/2/5
f 56/1/5 53/1/5 55/1/5
f 57/2/5 54/2/5 56/2/5
f 58/1/6 59/1/6 60/1/6
f 60/1/6 59/1/6 61/1/6
f 60/2/6 61/2/6 63/2/6
f 61/3/6 62/3/6 64/3/6
f 63/2/6 61/2/6 64/2/6
f 64/3/6 62/3/6 65/3/6
f 66/4/6 67/4/6 68/4/6
f 68/4/6 67/4/6 69/4/6
