# MagicaVoxel @ Ephtracy

# group
o 

# material
mtllib Salad.mtl
usemtl palette

# normals
vn -1 0 0
vn 1 0 0
vn 0 0 1
vn 0 0 -1
vn 0 -1 0
vn 0 1 0

# texcoords
vt 0.146484 0.5
vt 0.541016 0.5
vt 0.548828 0.5
vt 0.556641 0.5
vt 0.560547 0.5
vt 0.962891 0.5

# verts
v -0.4 0.1 0.1
v -0.4 0.1 -0.1
v -0.4 0.2 0.1
v -0.4 0.2 -0.1
v -0.3 0 0.1
v -0.3 0 -0.1
v -0.3 0.1 0.2
v -0.3 0.1 0.1
v -0.3 0.1 -0.1
v -0.3 0.1 -0.2
v -0.3 0.2 0.2
v -0.3 0.2 0.1
v -0.3 0.2 -0.1
v -0.3 0.2 -0.2
v -0.2 0 0.2
v -0.2 0 0.1
v -0.2 0 -0.1
v -0.2 0 -0.2
v -0.2 0.1 0.3
v -0.2 0.1 0.2
v -0.2 0.1 0.1
v -0.2 0.1 -0.1
v -0.2 0.1 -0.2
v -0.2 0.1 -0.3
v -0.2 0.2 0.3
v -0.2 0.2 0.2
v -0.2 0.2 0
v -0.2 0.2 -0.1
v -0.2 0.2 -0.2
v -0.2 0.2 -0.3
v -0.2 0.3 0
v -0.2 0.3 -0.1
v -0.1 0 0.3
v -0.1 0 0.2
v -0.1 0 -0.2
v -0.1 0 -0.3
v -0.1 0.1 0.4
v -0.1 0.1 0.3
v -0.1 0.1 0.2
v -0.1 0.1 -0.2
v -0.1 0.1 -0.3
v -0.1 0.1 -0.4
v -0.1 0.2 0.4
v -0.1 0.2 0.3
v -0.1 0.2 0.2
v -0.1 0.2 0.1
v -0.1 0.2 0
v -0.1 0.2 -0.1
v -0.1 0.2 -0.2
v -0.1 0.2 -0.3
v -0.1 0.2 -0.4
v -0.1 0.3 0.2
v -0.1 0.3 0.1
v -0.1 0.3 0
v -0.1 0.3 -0.1
v -0.1 0.3 -0.2
v 0.1 0 0.3
v 0.1 0 0.2
v 0.1 0 -0.2
v 0.1 0 -0.3
v 0.1 0.1 0.4
v 0.1 0.1 0.3
v 0.1 0.1 0.2
v 0.1 0.1 -0.2
v 0.1 0.1 -0.3
v 0.1 0.1 -0.4
v 0.1 0.2 0.4
v 0.1 0.2 0.3
v 0.1 0.2 0.2
v 0.1 0.2 0.1
v 0.1 0.2 -0.1
v 0.1 0.2 -0.2
v 0.1 0.2 -0.3
v 0.1 0.2 -0.4
v 0.1 0.3 0.2
v 0.1 0.3 0.1
v 0.1 0.3 -0.1
v 0.1 0.3 -0.2
v 0.2 0 0.2
v 0.2 0 0.1
v 0.2 0 -0.1
v 0.2 0 -0.2
v 0.2 0.1 0.3
v 0.2 0.1 0.2
v 0.2 0.1 0.1
v 0.2 0.1 -0.1
v 0.2 0.1 -0.2
v 0.2 0.1 -0.3
v 0.2 0.2 0.3
v 0.2 0.2 0.2
v 0.2 0.2 0.1
v 0.2 0.2 0
v 0.2 0.2 -0.1
v 0.2 0.2 -0.2
v 0.2 0.2 -0.3
v 0.2 0.3 0.1
v 0.2 0.3 0
v 0.2 0.3 -0.1
v 0.3 0 0.1
v 0.3 0 -0.1
v 0.3 0.1 0.2
v 0.3 0.1 0.1
v 0.3 0.1 -0.1
v 0.3 0.1 -0.2
v 0.3 0.2 0.2
v 0.3 0.2 0.1
v 0.3 0.2 -0.1
v 0.3 0.2 -0.2
v 0.4 0.1 0.1
v 0.4 0.1 -0.1
v 0.4 0.2 0.1
v 0.4 0.2 -0.1
v -0.1 0.1 0.4
v -0.1 0.2 0.4
v 0.1 0.1 0.4
v 0.1 0.2 0.4
v -0.2 0.1 0.3
v -0.2 0.2 0.3
v -0.1 0 0.3
v -0.1 0.1 0.3
v -0.1 0.2 0.3
v 0.1 0 0.3
v 0.1 0.1 0.3
v 0.1 0.2 0.3
v 0.2 0.1 0.3
v 0.2 0.2 0.3
v -0.3 0.1 0.2
v -0.3 0.2 0.2
v -0.2 0 0.2
v -0.2 0.1 0.2
v -0.2 0.2 0.2
v -0.1 0 0.2
v -0.1 0.1 0.2
v -0.1 0.2 0.2
v -0.1 0.3 0.2
v 0 0.2 0.2
v 0 0.3 0.2
v 0.1 0 0.2
v 0.1 0.1 0.2
v 0.1 0.2 0.2
v 0.1 0.3 0.2
v 0.2 0 0.2
v 0.2 0.1 0.2
v 0.2 0.2 0.2
v 0.3 0.1 0.2
v 0.3 0.2 0.2
v -0.4 0.1 0.1
v -0.4 0.2 0.1
v -0.3 0 0.1
v -0.3 0.1 0.1
v -0.3 0.2 0.1
v -0.2 0 0.1
v -0.2 0.1 0.1
v 0.1 0.2 0.1
v 0.1 0.3 0.1
v 0.2 0 0.1
v 0.2 0.1 0.1
v 0.2 0.2 0.1
v 0.2 0.3 0.1
v 0.3 0 0.1
v 0.3 0.1 0.1
v 0.3 0.2 0.1
v 0.4 0.1 0.1
v 0.4 0.2 0.1
v -0.2 0.2 0
v -0.2 0.3 0
v -0.1 0.2 0
v -0.1 0.3 0
v -0.4 0.1 -0.1
v -0.4 0.2 -0.1
v -0.3 0 -0.1
v -0.3 0.1 -0.1
v -0.3 0.2 -0.1
v -0.2 0 -0.1
v -0.2 0.1 -0.1
v -0.2 0.2 -0.1
v -0.2 0.3 -0.1
v -0.1 0.2 -0.1
v -0.1 0.3 -0.1
v 0.1 0.2 -0.1
v 0.1 0.3 -0.1
v 0.2 0 -0.1
v 0.2 0.1 -0.1
v 0.2 0.2 -0.1
v 0.2 0.3 -0.1
v 0.3 0 -0.1
v 0.3 0.1 -0.1
v 0.3 0.2 -0.1
v 0.4 0.1 -0.1
v 0.4 0.2 -0.1
v -0.3 0.1 -0.2
v -0.3 0.2 -0.2
v -0.2 0 -0.2
v -0.2 0.1 -0.2
v -0.2 0.2 -0.2
v -0.1 0 -0.2
v -0.1 0.1 -0.2
v -0.1 0.2 -0.2
v -0.1 0.3 -0.2
v 0 0.2 -0.2
v 0 0.3 -0.2
v 0.1 0 -0.2
v 0.1 0.1 -0.2
v 0.1 0.2 -0.2
v 0.1 0.3 -0.2
v 0.2 0 -0.2
v 0.2 0.1 -0.2
v 0.2 0.2 -0.2
v 0.3 0.1 -0.2
v 0.3 0.2 -0.2
v -0.2 0.1 -0.3
v -0.2 0.2 -0.3
v -0.1 0 -0.3
v -0.1 0.1 -0.3
v -0.1 0.2 -0.3
v 0.1 0 -0.3
v 0.1 0.1 -0.3
v 0.1 0.2 -0.3
v 0.2 0.1 -0.3
v 0.2 0.2 -0.3
v -0.1 0.1 -0.4
v -0.1 0.2 -0.4
v 0.1 0.1 -0.4
v 0.1 0.2 -0.4
v -0.1 0 0.3
v 0.1 0 0.3
v -0.2 0 0.2
v -0.1 0 0.2
v 0.1 0 0.2
v 0.2 0 0.2
v -0.3 0 0.1
v -0.2 0 0.1
v 0.2 0 0.1
v 0.3 0 0.1
v -0.3 0 -0.1
v -0.2 0 -0.1
v 0.2 0 -0.1
v 0.3 0 -0.1
v -0.2 0 -0.2
v -0.1 0 -0.2
v 0.1 0 -0.2
v 0.2 0 -0.2
v -0.1 0 -0.3
v 0.1 0 -0.3
v -0.1 0.1 0.4
v 0.1 0.1 0.4
v -0.2 0.1 0.3
v -0.1 0.1 0.3
v 0.1 0.1 0.3
v 0.2 0.1 0.3
v -0.3 0.1 0.2
v -0.2 0.1 0.2
v -0.1 0.1 0.2
v 0.1 0.1 0.2
v 0.2 0.1 0.2
v 0.3 0.1 0.2
v -0.4 0.1 0.1
v -0.3 0.1 0.1
v -0.2 0.1 0.1
v 0.2 0.1 0.1
v 0.3 0.1 0.1
v 0.4 0.1 0.1
v -0.4 0.1 -0.1
v -0.3 0.1 -0.1
v -0.2 0.1 -0.1
v 0.2 0.1 -0.1
v 0.3 0.1 -0.1
v 0.4 0.1 -0.1
v -0.3 0.1 -0.2
v -0.2 0.1 -0.2
v -0.1 0.1 -0.2
v 0.1 0.1 -0.2
v 0.2 0.1 -0.2
v 0.3 0.1 -0.2
v -0.2 0.1 -0.3
v -0.1 0.1 -0.3
v 0.1 0.1 -0.3
v 0.2 0.1 -0.3
v -0.1 0.1 -0.4
v 0.1 0.1 -0.4
v -0.1 0.2 0.4
v 0.1 0.2 0.4
v -0.2 0.2 0.3
v -0.1 0.2 0.3
v 0 0.2 0.3
v 0.1 0.2 0.3
v 0.2 0.2 0.3
v -0.3 0.2 0.2
v -0.2 0.2 0.2
v -0.1 0.2 0.2
v 0 0.2 0.2
v 0.1 0.2 0.2
v 0.2 0.2 0.2
v 0.3 0.2 0.2
v -0.4 0.2 0.1
v -0.3 0.2 0.1
v -0.2 0.2 0.1
v -0.1 0.2 0.1
v 0.1 0.2 0.1
v 0.2 0.2 0.1
v 0.3 0.2 0.1
v 0.4 0.2 0.1
v -0.3 0.2 0
v -0.2 0.2 0
v -0.1 0.2 0
v 0.2 0.2 0
v 0.3 0.2 0
v -0.4 0.2 -0.1
v -0.3 0.2 -0.1
v -0.2 0.2 -0.1
v -0.1 0.2 -0.1
v 0.1 0.2 -0.1
v 0.2 0.2 -0.1
v 0.3 0.2 -0.1
v 0.4 0.2 -0.1
v -0.3 0.2 -0.2
v -0.2 0.2 -0.2
v -0.1 0.2 -0.2
v 0 0.2 -0.2
v 0.1 0.2 -0.2
v 0.2 0.2 -0.2
v 0.3 0.2 -0.2
v -0.2 0.2 -0.3
v -0.1 0.2 -0.3
v 0 0.2 -0.3
v 0.1 0.2 -0.3
v 0.2 0.2 -0.3
v -0.1 0.2 -0.4
v 0.1 0.2 -0.4
v -0.1 0.3 0.2
v 0 0.3 0.2
v 0.1 0.3 0.2
v -0.1 0.3 0.1
v 0 0.3 0.1
v 0.1 0.3 0.1
v 0.2 0.3 0.1
v -0.2 0.3 0
v -0.1 0.3 0
v 0 0.3 0
v 0.1 0.3 0
v 0.2 0.3 0
v -0.2 0.3 -0.1
v -0.1 0.3 -0.1
v 0 0.3 -0.1
v 0.1 0.3 -0.1
v 0.2 0.3 -0.1
v -0.1 0.3 -0.2
v 0 0.3 -0.2
v 0.1 0.3 -0.2

# faces
f 3/6/1 2/6/1 1/6/1
f 4/6/1 2/6/1 3/6/1
f 8/6/1 6/6/1 5/6/1
f 9/6/1 6/6/1 8/6/1
f 11/6/1 8/6/1 7/6/1
f 12/6/1 8/6/1 11/6/1
f 13/6/1 10/6/1 9/6/1
f 14/6/1 10/6/1 13/6/1
f 20/6/1 16/6/1 15/6/1
f 21/6/1 16/6/1 20/6/1
f 22/6/1 18/6/1 17/6/1
f 23/6/1 18/6/1 22/6/1
f 25/6/1 20/6/1 19/6/1
f 26/6/1 20/6/1 25/6/1
f 29/6/1 24/6/1 23/6/1
f 30/6/1 24/6/1 29/6/1
f 31/1/1 28/1/1 27/1/1
f 32/1/1 28/1/1 31/1/1
f 38/6/1 34/6/1 33/6/1
f 39/6/1 34/6/1 38/6/1
f 40/6/1 36/6/1 35/6/1
f 41/6/1 36/6/1 40/6/1
f 43/6/1 38/6/1 37/6/1
f 44/6/1 38/6/1 43/6/1
f 50/6/1 42/6/1 41/6/1
f 51/6/1 42/6/1 50/6/1
f 52/1/1 46/1/1 45/1/1
f 53/4/1 47/4/1 46/4/1
f 53/1/1 46/1/1 52/1/1
f 54/4/1 47/4/1 53/4/1
f 55/4/1 49/4/1 48/4/1
f 56/4/1 49/4/1 55/4/1
f 57/6/2 58/6/2 62/6/2
f 62/6/2 58/6/2 63/6/2
f 59/6/2 60/6/2 64/6/2
f 64/6/2 60/6/2 65/6/2
f 61/6/2 62/6/2 67/6/2
f 67/6/2 62/6/2 68/6/2
f 65/6/2 66/6/2 73/6/2
f 73/6/2 66/6/2 74/6/2
f 69/4/2 70/4/2 75/4/2
f 75/4/2 70/4/2 76/4/2
f 71/2/2 72/2/2 77/2/2
f 77/2/2 72/2/2 78/2/2
f 79/6/2 80/6/2 84/6/2
f 84/6/2 80/6/2 85/6/2
f 81/6/2 82/6/2 86/6/2
f 86/6/2 82/6/2 87/6/2
f 83/6/2 84/6/2 89/6/2
f 89/6/2 84/6/2 90/6/2
f 87/6/2 88/6/2 94/6/2
f 94/6/2 88/6/2 95/6/2
f 91/4/2 92/4/2 96/4/2
f 92/5/2 93/5/2 97/5/2
f 96/4/2 92/4/2 97/4/2
f 97/5/2 93/5/2 98/5/2
f 99/6/2 100/6/2 102/6/2
f 102/6/2 100/6/2 103/6/2
f 101/6/2 102/6/2 105/6/2
f 105/6/2 102/6/2 106/6/2
f 103/6/2 104/6/2 107/6/2
f 107/6/2 104/6/2 108/6/2
f 109/6/2 110/6/2 111/6/2
f 111/6/2 110/6/2 112/6/2
f 115/6/3 114/6/3 113/6/3
f 116/6/3 114/6/3 115/6/3
f 120/6/3 118/6/3 117/6/3
f 121/6/3 118/6/3 120/6/3
f 122/6/3 120/6/3 119/6/3
f 123/6/3 120/6/3 122/6/3
f 125/6/3 124/6/3 123/6/3
f 126/6/3 124/6/3 125/6/3
f 130/6/3 128/6/3 127/6/3
f 131/6/3 128/6/3 130/6/3
f 132/6/3 130/6/3 129/6/3
f 133/6/3 130/6/3 132/6/3
f 136/1/3 135/1/3 134/1/3
f 137/1/3 135/1/3 136/1/3
f 140/4/3 137/4/3 136/4/3
f 141/4/3 137/4/3 140/4/3
f 142/6/3 139/6/3 138/6/3
f 143/6/3 139/6/3 142/6/3
f 145/6/3 144/6/3 143/6/3
f 146/6/3 144/6/3 145/6/3
f 150/6/3 148/6/3 147/6/3
f 151/6/3 148/6/3 150/6/3
f 152/6/3 150/6/3 149/6/3
f 153/6/3 150/6/3 152/6/3
f 158/4/3 155/4/3 154/4/3
f 159/4/3 155/4/3 158/4/3
f 160/6/3 157/6/3 156/6/3
f 161/6/3 157/6/3 160/6/3
f 163/6/3 162/6/3 161/6/3
f 164/6/3 162/6/3 163/6/3
f 167/1/3 166/1/3 165/1/3
f 168/1/3 166/1/3 167/1/3
f 169/6/4 170/6/4 172/6/4
f 172/6/4 170/6/4 173/6/4
f 171/6/4 172/6/4 174/6/4
f 174/6/4 172/6/4 175/6/4
f 176/1/4 177/1/4 178/1/4
f 178/1/4 177/1/4 179/1/4
f 180/5/4 181/5/4 184/5/4
f 184/5/4 181/5/4 185/5/4
f 182/6/4 183/6/4 186/6/4
f 186/6/4 183/6/4 187/6/4
f 187/6/4 188/6/4 189/6/4
f 189/6/4 188/6/4 190/6/4
f 191/6/4 192/6/4 194/6/4
f 194/6/4 192/6/4 195/6/4
f 193/6/4 194/6/4 196/6/4
f 196/6/4 194/6/4 197/6/4
f 198/4/4 199/4/4 200/4/4
f 200/4/4 199/4/4 201/4/4
f 200/2/4 201/2/4 204/2/4
f 204/2/4 201/2/4 205/2/4
f 202/6/4 203/6/4 206/6/4
f 206/6/4 203/6/4 207/6/4
f 207/6/4 208/6/4 209/6/4
f 209/6/4 208/6/4 210/6/4
f 211/6/4 212/6/4 214/6/4
f 214/6/4 212/6/4 215/6/4
f 213/6/4 214/6/4 216/6/4
f 216/6/4 214/6/4 217/6/4
f 217/6/4 218/6/4 219/6/4
f 219/6/4 218/6/4 220/6/4
f 221/6/4 222/6/4 223/6/4
f 223/6/4 222/6/4 224/6/4
f 228/6/5 226/6/5 225/6/5
f 229/6/5 226/6/5 228/6/5
f 232/6/5 228/6/5 227/6/5
f 232/6/5 230/6/5 229/6/5
f 232/6/5 229/6/5 228/6/5
f 233/6/5 230/6/5 232/6/5
f 235/6/5 232/6/5 231/6/5
f 235/6/5 234/6/5 233/6/5
f 235/6/5 233/6/5 232/6/5
f 236/6/5 234/6/5 235/6/5
f 237/6/5 234/6/5 236/6/5
f 238/6/5 234/6/5 237/6/5
f 239/6/5 237/6/5 236/6/5
f 240/6/5 237/6/5 239/6/5
f 241/6/5 237/6/5 240/6/5
f 242/6/5 237/6/5 241/6/5
f 243/6/5 241/6/5 240/6/5
f 244/6/5 241/6/5 243/6/5
f 248/6/5 246/6/5 245/6/5
f 249/6/5 246/6/5 248/6/5
f 252/6/5 248/6/5 247/6/5
f 253/6/5 248/6/5 252/6/5
f 254/6/5 250/6/5 249/6/5
f 255/6/5 250/6/5 254/6/5
f 258/6/5 252/6/5 251/6/5
f 259/6/5 252/6/5 258/6/5
f 260/6/5 256/6/5 255/6/5
f 261/6/5 256/6/5 260/6/5
f 263/6/5 258/6/5 257/6/5
f 264/6/5 258/6/5 263/6/5
f 267/6/5 262/6/5 261/6/5
f 268/6/5 262/6/5 267/6/5
f 269/6/5 265/6/5 264/6/5
f 270/6/5 265/6/5 269/6/5
f 273/6/5 267/6/5 266/6/5
f 274/6/5 267/6/5 273/6/5
f 275/6/5 271/6/5 270/6/5
f 276/6/5 271/6/5 275/6/5
f 277/6/5 273/6/5 272/6/5
f 278/6/5 273/6/5 277/6/5
f 279/6/5 277/6/5 276/6/5
f 280/6/5 277/6/5 279/6/5
f 281/6/6 282/6/6 284/6/6
f 284/6/6 282/6/6 285/6/6
f 285/6/6 282/6/6 286/6/6
f 283/6/6 284/6/6 289/6/6
f 284/2/6 285/2/6 290/2/6
f 289/6/6 284/6/6 290/6/6
f 285/3/6 286/3/6 291/3/6
f 290/2/6 285/2/6 291/2/6
f 286/6/6 287/6/6 292/6/6
f 291/3/6 286/3/6 292/3/6
f 292/6/6 287/6/6 293/6/6
f 288/6/6 289/6/6 296/6/6
f 289/3/6 290/3/6 297/3/6
f 296/6/6 289/6/6 297/6/6
f 297/3/6 290/3/6 298/3/6
f 292/2/6 293/2/6 299/2/6
f 293/6/6 294/6/6 300/6/6
f 299/2/6 293/2/6 300/2/6
f 300/6/6 294/6/6 301/6/6
f 297/2/6 298/2/6 303/2/6
f 295/6/6 296/6/6 303/6/6
f 296/2/6 297/2/6 303/2/6
f 303/2/6 298/2/6 304/2/6
f 304/2/6 298/2/6 305/2/6
f 300/2/6 301/2/6 306/2/6
f 301/6/6 302/6/6 307/6/6
f 306/2/6 301/2/6 307/2/6
f 295/6/6 303/6/6 308/6/6
f 303/5/6 304/5/6 309/5/6
f 308/6/6 303/6/6 309/6/6
f 309/5/6 304/5/6 310/5/6
f 306/3/6 307/3/6 313/3/6
f 307/6/6 302/6/6 314/6/6
f 313/3/6 307/3/6 314/3/6
f 314/6/6 302/6/6 315/6/6
f 309/6/6 310/6/6 316/6/6
f 310/3/6 311/3/6 317/3/6
f 316/6/6 310/6/6 317/6/6
f 317/3/6 311/3/6 318/3/6
f 312/1/6 313/1/6 320/1/6
f 313/6/6 314/6/6 321/6/6
f 320/1/6 313/1/6 321/1/6
f 321/6/6 314/6/6 322/6/6
f 317/6/6 318/6/6 323/6/6
f 318/1/6 319/1/6 324/1/6
f 323/6/6 318/6/6 324/6/6
f 319/3/6 320/3/6 325/3/6
f 324/1/6 319/1/6 325/1/6
f 320/6/6 321/6/6 326/6/6
f 325/3/6 320/3/6 326/3/6
f 326/6/6 321/6/6 327/6/6
f 324/6/6 325/6/6 328/6/6
f 325/6/6 326/6/6 328/6/6
f 328/6/6 326/6/6 329/6/6
f 330/1/6 331/1/6 333/1/6
f 331/4/6 332/4/6 334/4/6
f 333/1/6 331/1/6 334/1/6
f 334/4/6 332/4/6 335/4/6
f 333/4/6 334/4/6 338/4/6
f 334/5/6 335/5/6 339/5/6
f 338/4/6 334/4/6 339/4/6
f 335/4/6 336/4/6 340/4/6
f 339/5/6 335/5/6 340/5/6
f 340/4/6 336/4/6 341/4/6
f 337/1/6 338/1/6 342/1/6
f 338/5/6 339/5/6 343/5/6
f 342/1/6 338/1/6 343/1/6
f 339/1/6 340/1/6 344/1/6
f 343/5/6 339/5/6 344/5/6
f 340/5/6 341/5/6 345/5/6
f 344/1/6 340/1/6 345/1/6
f 345/5/6 341/5/6 346/5/6
f 343/4/6 344/4/6 347/4/6
f 344/2/6 345/2/6 348/2/6
f 347/4/6 344/4/6 348/4/6
f 348/2/6 345/2/6 349/2/6
