# MagicaVoxel @ Ephtracy

# group
o 

# material
mtllib Orange.mtl
usemtl palette

# normals
vn -1 0 0
vn 1 0 0
vn 0 0 1
vn 0 0 -1
vn 0 -1 0
vn 0 1 0

# texcoords
vt 0.173828 0.5
vt 0.208984 0.5
vt 0.541016 0.5

# verts
v -0.1 0 0.1
v -0.1 0 0
v -0.1 0 -0.1
v -0.1 0.1 0.1
v -0.1 0.1 0
v -0.1 0.1 -0.1
v -0.1 0.2 0.1
v -0.1 0.2 0
v -0.1 0.2 -0.1
v -0.1 0.3 0
v -0.1 0.3 -0.1
v 0 0.2 0
v 0 0.2 -0.1
v 0 0.3 0
v 0 0.3 -0.1
v 0.1 0 0.1
v 0.1 0 0
v 0.1 0 -0.1
v 0.1 0.1 0.1
v 0.1 0.1 0
v 0.1 0.1 -0.1
v 0.1 0.2 0.1
v 0.1 0.2 0
v 0.1 0.2 -0.1
v -0.1 0 0.1
v -0.1 0.1 0.1
v -0.1 0.2 0.1
v 0 0 0.1
v 0 0.1 0.1
v 0 0.2 0.1
v 0.1 0 0.1
v 0.1 0.1 0.1
v 0.1 0.2 0.1
v -0.1 0.2 0
v -0.1 0.3 0
v 0 0.2 0
v 0 0.3 0
v -0.1 0 -0.1
v -0.1 0.1 -0.1
v -0.1 0.2 -0.1
v -0.1 0.3 -0.1
v 0 0 -0.1
v 0 0.1 -0.1
v 0 0.2 -0.1
v 0 0.3 -0.1
v 0.1 0 -0.1
v 0.1 0.1 -0.1
v 0.1 0.2 -0.1
v -0.1 0 0.1
v 0 0 0.1
v 0.1 0 0.1
v -0.1 0 0
v 0 0 0
v 0.1 0 0
v -0.1 0 -0.1
v 0 0 -0.1
v 0.1 0 -0.1
v -0.1 0.2 0.1
v 0 0.2 0.1
v 0.1 0.2 0.1
v -0.1 0.2 0
v 0 0.2 0
v 0.1 0.2 0
v 0 0.2 -0.1
v 0.1 0.2 -0.1
v -0.1 0.3 0
v 0 0.3 0
v -0.1 0.3 -0.1
v 0 0.3 -0.1

# faces
f 4/2/1 2/2/1 1/2/1
f 5/1/1 3/1/1 2/1/1
f 5/2/1 2/2/1 4/2/1
f 6/1/1 3/1/1 5/1/1
f 7/1/1 5/1/1 4/1/1
f 8/2/1 6/2/1 5/2/1
f 8/1/1 5/1/1 7/1/1
f 9/2/1 6/2/1 8/2/1
f 10/3/1 9/3/1 8/3/1
f 11/3/1 9/3/1 10/3/1
f 12/3/2 13/3/2 14/3/2
f 14/3/2 13/3/2 15/3/2
f 16/1/2 17/1/2 19/1/2
f 17/2/2 18/2/2 20/2/2
f 19/1/2 17/1/2 20/1/2
f 20/2/2 18/2/2 21/2/2
f 19/2/2 20/2/2 22/2/2
f 20/1/2 21/1/2 23/1/2
f 22/2/2 20/2/2 23/2/2
f 23/1/2 21/1/2 24/1/2
f 28/2/3 26/2/3 25/2/3
f 29/1/3 27/1/3 26/1/3
f 29/2/3 26/2/3 28/2/3
f 30/1/3 27/1/3 29/1/3
f 31/1/3 29/1/3 28/1/3
f 32/2/3 30/2/3 29/2/3
f 32/1/3 29/1/3 31/1/3
f 33/2/3 30/2/3 32/2/3
f 36/3/3 35/3/3 34/3/3
f 37/3/3 35/3/3 36/3/3
f 38/1/4 39/1/4 42/1/4
f 39/2/4 40/2/4 43/2/4
f 42/1/4 39/1/4 43/1/4
f 40/3/4 41/3/4 44/3/4
f 43/2/4 40/2/4 44/2/4
f 44/3/4 41/3/4 45/3/4
f 42/2/4 43/2/4 46/2/4
f 43/1/4 44/1/4 47/1/4
f 46/2/4 43/2/4 47/2/4
f 47/1/4 44/1/4 48/1/4
f 52/2/5 50/2/5 49/2/5
f 53/1/5 51/1/5 50/1/5
f 53/2/5 50/2/5 52/2/5
f 54/1/5 51/1/5 53/1/5
f 55/1/5 53/1/5 52/1/5
f 56/2/5 54/2/5 53/2/5
f 56/1/5 53/1/5 55/1/5
f 57/2/5 54/2/5 56/2/5
f 58/1/6 59/1/6 61/1/6
f 59/2/6 60/2/6 62/2/6
f 61/1/6 59/1/6 62/1/6
f 62/2/6 60/2/6 63/2/6
f 62/1/6 63/1/6 64/1/6
f 64/1/6 63/1/6 65/1/6
f 66/3/6 67/3/6 68/3/6
f 68/3/6 67/3/6 69/3/6
